# OBJ generated by ONSHAPE BY PTC INC, 1.197 Units = meters
mtllib Big Disk - Disk.mtl
g Disk
v 0.00635 -0.00705358 0.115099 
v 0.00635 -0.00298513 0.115099 
v -0.00635 -0.00298513 0.115099 
v -0.00635 -0.00705358 0.115099 
v -0.00635 -0.00941307 0.11615 
v -0.00635 -0.00980321 0.116687 
v 0.00635 -0.00980321 0.116687 
v -0.00635 -0.0089198 0.115705 
v 0.00635 -0.00941307 0.11615 
v -0.00635 -0.00834497 0.115374 
v 0.00635 -0.0089198 0.115705 
v -0.00635 -0.0077137 0.115168 
v 0.00635 -0.00834497 0.115374 
v 0.00635 -0.0077137 0.115168 
v -0.00635 -0.0118374 0.12021 
v 0.00635 -0.0118374 0.12021 
v -0.00635 -0.0159619 0.117829 
v 0.00635 -0.0159619 0.117829 
v -0.00635 -0.0197778 0.123081 
v -0.00635 -0.0192258 0.123482 
v 0.00635 -0.0192258 0.123482 
v -0.00635 -0.0202344 0.122574 
v 0.00635 -0.0197778 0.123081 
v -0.00635 -0.0205756 0.121983 
v 0.00635 -0.0202344 0.122574 
v -0.00635 -0.0207864 0.121334 
v 0.00635 -0.0205756 0.121983 
v -0.00635 -0.0208577 0.120655 
v 0.00635 -0.0207864 0.121334 
v -0.00635 -0.0207864 0.119977 
v 0.00635 -0.0208577 0.120655 
v -0.00635 -0.0205756 0.119328 
v 0.00635 -0.0207864 0.119977 
v -0.00635 -0.0202344 0.118737 
v 0.00635 -0.0205756 0.119328 
v -0.00635 -0.0197778 0.11823 
v 0.00635 -0.0202344 0.118737 
v -0.00635 -0.0192258 0.117829 
v 0.00635 -0.0197778 0.11823 
v -0.00635 -0.0186024 0.117551 
v 0.00635 -0.0192258 0.117829 
v -0.00635 -0.017935 0.117409 
v 0.00635 -0.0186024 0.117551 
v -0.00635 -0.0172527 0.117409 
v 0.00635 -0.017935 0.117409 
v -0.00635 -0.0165852 0.117551 
v 0.00635 -0.0172527 0.117409 
v 0.00635 -0.0165852 0.117551 
v -0.00635 -0.0151013 0.125863 
v 0.00635 -0.0151013 0.125863 
v -0.00635 -0.0171356 0.129387 
v 0.00635 -0.0171356 0.129387 
v -0.00635 -0.0174055 0.131955 
v -0.00635 -0.0171356 0.132562 
v 0.00635 -0.0171356 0.132562 
v -0.00635 -0.0175435 0.131306 
v 0.00635 -0.0174055 0.131955 
v -0.00635 -0.0175435 0.130642 
v 0.00635 -0.0175435 0.131306 
v -0.00635 -0.0174055 0.129993 
v 0.00635 -0.0175435 0.130642 
v 0.00635 -0.0174055 0.129993 
v -0.00635 -0.0151013 0.136085 
v 0.00635 -0.0151013 0.136085 
v -0.00635 -0.0192258 0.138466 
v 0.00635 -0.0192258 0.138466 
v -0.00635 -0.0165852 0.144397 
v -0.00635 -0.0159619 0.144119 
v 0.00635 -0.0159619 0.144119 
v -0.00635 -0.0172527 0.144539 
v 0.00635 -0.0165852 0.144397 
v -0.00635 -0.017935 0.144539 
v 0.00635 -0.0172527 0.144539 
v -0.00635 -0.0186024 0.144397 
v 0.00635 -0.017935 0.144539 
v -0.00635 -0.0192258 0.144119 
v 0.00635 -0.0186024 0.144397 
v -0.00635 -0.0197778 0.143718 
v 0.00635 -0.0192258 0.144119 
v -0.00635 -0.0202344 0.143211 
v 0.00635 -0.0197778 0.143718 
v -0.00635 -0.0205756 0.14262 
v 0.00635 -0.0202344 0.143211 
v -0.00635 -0.0207864 0.141971 
v 0.00635 -0.0205756 0.14262 
v -0.00635 -0.0208577 0.141293 
v 0.00635 -0.0207864 0.141971 
v -0.00635 -0.0207864 0.140614 
v 0.00635 -0.0208577 0.141293 
v -0.00635 -0.0205756 0.139965 
v 0.00635 -0.0207864 0.140614 
v -0.00635 -0.0202344 0.139374 
v 0.00635 -0.0205756 0.139965 
v -0.00635 -0.0197778 0.138867 
v 0.00635 -0.0202344 0.139374 
v 0.00635 -0.0197778 0.138867 
v -0.00635 -0.0118374 0.141738 
v 0.00635 -0.0118374 0.141738 
v 0.00635 -0.00980321 0.145262 
v -0.00635 -0.00980321 0.145262 
v -0.00635 -0.0077137 0.14678 
v -0.00635 -0.00705358 0.146849 
v 0.00635 -0.00705358 0.146849 
v -0.00635 -0.00834497 0.146575 
v 0.00635 -0.0077137 0.14678 
v -0.00635 -0.0089198 0.146243 
v 0.00635 -0.00834497 0.146575 
v -0.00635 -0.00941307 0.145799 
v 0.00635 -0.0089198 0.146243 
v 0.00635 -0.00941307 0.145799 
v -0.00635 -0.00298513 0.146849 
v 0.00635 -0.00298513 0.146849 
v -0.00635 -0.00298513 0.110337 
v 0.00635 -0.00298513 0.110337 
v -0.00635 -0.00291381 0.109658 
v -0.00635 -0.00270296 0.109009 
v 0.00635 -0.00291381 0.109658 
v -0.00635 -0.00236179 0.108418 
v 0.00635 -0.00270296 0.109009 
v -0.00635 -0.00190521 0.107911 
v 0.00635 -0.00236179 0.108418 
v -0.00635 -0.00135318 0.10751 
v 0.00635 -0.00190521 0.107911 
v -0.00635 -0.000729836 0.107232 
v 0.00635 -0.00135318 0.10751 
v -0.00635 -6.24055e-05 0.107091 
v 0.00635 -0.000729836 0.107232 
v -0.00635 0.000619935 0.107091 
v 0.00635 -6.24055e-05 0.107091 
v -0.00635 0.00128737 0.107232 
v 0.00635 0.000619935 0.107091 
v -0.00635 0.00191071 0.10751 
v 0.00635 0.00128737 0.107232 
v -0.00635 0.00246274 0.107911 
v 0.00635 0.00191071 0.10751 
v -0.00635 0.00291932 0.108418 
v 0.00635 0.00246274 0.107911 
v -0.00635 0.00326049 0.109009 
v 0.00635 0.00291932 0.108418 
v -0.00635 0.00347134 0.109658 
v 0.00635 0.00326049 0.109009 
v -0.00635 0.00354266 0.110337 
v 0.00635 0.00347134 0.109658 
v 0.00635 0.00354266 0.110337 
v -0.00635 0.00354266 0.115099 
v 0.00635 0.00354266 0.115099 
v 0.00635 0.00761111 0.115099 
v -0.00635 0.00761111 0.115099 
v -0.00635 0.00827123 0.115168 
v -0.00635 0.0089025 0.115374 
v 0.00635 0.00827123 0.115168 
v -0.00635 0.00947733 0.115705 
v 0.00635 0.0089025 0.115374 
v -0.00635 0.0099706 0.11615 
v 0.00635 0.00947733 0.115705 
v -0.00635 0.0103607 0.116687 
v 0.00635 0.0099706 0.11615 
v 0.00635 0.0103607 0.116687 
v 0.00635 0.012395 0.12021 
v -0.00635 0.012395 0.12021 
v -0.00635 0.0165194 0.117829 
v 0.00635 0.0165194 0.117829 
v -0.00635 0.0171428 0.117551 
v -0.00635 0.0178102 0.117409 
v 0.00635 0.0171428 0.117551 
v -0.00635 0.0184925 0.117409 
v 0.00635 0.0178102 0.117409 
v -0.00635 0.01916 0.117551 
v 0.00635 0.0184925 0.117409 
v -0.00635 0.0197833 0.117829 
v 0.00635 0.01916 0.117551 
v -0.00635 0.0203353 0.11823 
v 0.00635 0.0197833 0.117829 
v -0.00635 0.0207919 0.118737 
v 0.00635 0.0203353 0.11823 
v -0.00635 0.0211331 0.119328 
v 0.00635 0.0207919 0.118737 
v -0.00635 0.0213439 0.119977 
v 0.00635 0.0211331 0.119328 
v -0.00635 0.0214153 0.120655 
v 0.00635 0.0213439 0.119977 
v -0.00635 0.0213439 0.121334 
v 0.00635 0.0214153 0.120655 
v -0.00635 0.0211331 0.121983 
v 0.00635 0.0213439 0.121334 
v -0.00635 0.0207919 0.122574 
v 0.00635 0.0211331 0.121983 
v -0.00635 0.0203353 0.123081 
v 0.00635 0.0207919 0.122574 
v -0.00635 0.0197833 0.123482 
v 0.00635 0.0203353 0.123081 
v 0.00635 0.0197833 0.123482 
v -0.00635 0.0156589 0.125863 
v 0.00635 0.0156589 0.125863 
v 0.00635 0.0176931 0.129387 
v -0.00635 0.0176931 0.129387 
v -0.00635 0.0179631 0.129993 
v -0.00635 0.0181011 0.130642 
v 0.00635 0.0179631 0.129993 
v -0.00635 0.0181011 0.131306 
v 0.00635 0.0181011 0.130642 
v -0.00635 0.0179631 0.131955 
v 0.00635 0.0181011 0.131306 
v -0.00635 0.0176931 0.132562 
v 0.00635 0.0179631 0.131955 
v 0.00635 0.0176931 0.132562 
v 0.00635 0.0156589 0.136085 
v -0.00635 0.0156589 0.136085 
v 0.00635 0.0197833 0.138466 
v -0.00635 0.0197833 0.138466 
v -0.00635 0.0203353 0.138867 
v -0.00635 0.0207919 0.139374 
v 0.00635 0.0203353 0.138867 
v -0.00635 0.0211331 0.139965 
v 0.00635 0.0207919 0.139374 
v -0.00635 0.0213439 0.140614 
v 0.00635 0.0211331 0.139965 
v -0.00635 0.0214153 0.141293 
v 0.00635 0.0213439 0.140614 
v -0.00635 0.0213439 0.141971 
v 0.00635 0.0214153 0.141293 
v -0.00635 0.0211331 0.14262 
v 0.00635 0.0213439 0.141971 
v -0.00635 0.0207919 0.143211 
v 0.00635 0.0211331 0.14262 
v -0.00635 0.0203353 0.143718 
v 0.00635 0.0207919 0.143211 
v -0.00635 0.0197833 0.144119 
v 0.00635 0.0203353 0.143718 
v -0.00635 0.01916 0.144397 
v 0.00635 0.0197833 0.144119 
v -0.00635 0.0184925 0.144539 
v 0.00635 0.01916 0.144397 
v -0.00635 0.0178102 0.144539 
v 0.00635 0.0184925 0.144539 
v -0.00635 0.0171428 0.144397 
v 0.00635 0.0178102 0.144539 
v -0.00635 0.0165194 0.144119 
v 0.00635 0.0171428 0.144397 
v 0.00635 0.0165194 0.144119 
v 0.00635 0.012395 0.141738 
v -0.00635 0.012395 0.141738 
v -0.00635 0.0103607 0.145262 
v 0.00635 0.0103607 0.145262 
v -0.00635 0.0099706 0.145799 
v -0.00635 0.00947733 0.146243 
v 0.00635 0.0099706 0.145799 
v -0.00635 0.0089025 0.146575 
v 0.00635 0.00947733 0.146243 
v -0.00635 0.00827123 0.14678 
v 0.00635 0.0089025 0.146575 
v -0.00635 0.00761111 0.146849 
v 0.00635 0.00827123 0.14678 
v 0.00635 0.00761111 0.146849 
v 0.00635 0.00354266 0.146849 
v -0.00635 0.00354266 0.146849 
v -0.00635 0.00354266 0.151612 
v 0.00635 0.00354266 0.151612 
v -0.00635 0.00347134 0.15229 
v -0.00635 0.00326049 0.152939 
v 0.00635 0.00347134 0.15229 
v -0.00635 0.00291932 0.15353 
v 0.00635 0.00326049 0.152939 
v -0.00635 0.00246274 0.154037 
v 0.00635 0.00291932 0.15353 
v -0.00635 0.00191071 0.154438 
v 0.00635 0.00246274 0.154037 
v -0.00635 0.00128737 0.154716 
v 0.00635 0.00191071 0.154438 
v -0.00635 0.000619935 0.154858 
v 0.00635 0.00128737 0.154716 
v -0.00635 -6.24055e-05 0.154858 
v 0.00635 0.000619935 0.154858 
v -0.00635 -0.000729836 0.154716 
v 0.00635 -6.24055e-05 0.154858 
v -0.00635 -0.00135319 0.154438 
v 0.00635 -0.000729836 0.154716 
v -0.00635 -0.00190521 0.154037 
v 0.00635 -0.00135319 0.154438 
v -0.00635 -0.00236179 0.15353 
v 0.00635 -0.00190521 0.154037 
v -0.00635 -0.00270296 0.152939 
v 0.00635 -0.00236179 0.15353 
v -0.00635 -0.00291381 0.15229 
v 0.00635 -0.00270296 0.152939 
v -0.00635 -0.00298513 0.151612 
v 0.00635 -0.00291381 0.15229 
v 0.00635 -0.00298513 0.151612 
v 0.00635 0.0421674 0.116114 
v 0.00635 -0.00953453 0.214372 
v 0.00635 0.0338008 0.101308 
v 0.00635 0.0386988 0.108307 
v 0.00635 0.0554901 0.215283 
v 0.00635 -0.00785863 0.205508 
v 0.00635 -0.0138278 0.179504 
v 0.00635 -0.0412955 0.146621 
v 0.00635 0.0440785 0.12444 
v 0.00635 0.00744345 0.231502 
v 0.00635 -0.0374581 0.154106 
v 0.00635 0.0201291 0.229761 
v 0.00635 -0.0129902 0.222705 
v 0.00635 -0.00536038 0.231633 
v 0.00635 -0.0080335 0.196489 
v 0.00635 -0.0100517 0.187697 
v 0.00635 -0.0192016 0.172259 
v 0.00635 -0.0259454 0.166267 
v 0.00635 -0.0395035 0.0178673 
v 0.00635 -0.0362619 0.0140357 
v 0.00635 0.0443447 0.221587 
v 0.00635 0.0324949 0.226438 
v 0.00635 -0.0180791 0.230154 
v 0.00635 -0.0322796 0.160734 
v 0.00635 -0.0419285 0.0222615 
v 0.00635 -0.0439852 0.0320361 
v 0.00635 0.0204866 0.0907276 
v 0.00635 0.0276544 0.0953751 
v 0.00635 -0.04445 0.130175 
v 0.00635 -0.0323302 0.0109163 
v 0.00635 -0.0434421 0.0270467 
v 0.00635 -0.0059339 0.0624926 
v 0.00635 -0.00123601 0.0711428 
v 0.00635 0.00485603 0.0788749 
v 0.00635 -0.0436542 0.138548 
v 0.00635 -0.0278618 0.00863087 
v 0.00635 -0.0105341 0.0336088 
v 0.00635 -0.00875589 0.0239271 
v 0.00635 -0.0230314 0.00726866 
v 0.00635 -0.00910253 0.0531729 
v 0.00635 0.012167 0.0854663 
v 0.00635 1.30104e-18 0.003175 
v 0.00635 -0.00536725 0.0146851 
v 0.00635 -0.0106508 0.0434517 
v -0.00635 0.0440785 0.12444 
v -0.00635 -0.0434421 0.0270467 
v -0.00635 -0.0439852 0.0320361 
v -0.00635 -0.0323302 0.0109163 
v -0.00635 -0.0362619 0.0140357 
v -0.00635 0.0421674 0.116114 
v -0.00635 0.0386988 0.108307 
v -0.00635 0.0204866 0.0907276 
v -0.00635 0.012167 0.0854663 
v -0.00635 -0.0419285 0.0222615 
v -0.00635 -0.0395035 0.0178673 
v -0.00635 0.0338008 0.101308 
v -0.00635 0.00485603 0.0788749 
v -0.00635 0.0554901 0.215283 
v -0.00635 -0.00123601 0.0711428 
v -0.00635 -0.0278618 0.00863087 
v -0.00635 -0.0230314 0.00726866 
v -0.00635 -0.00875589 0.0239271 
v -0.00635 -0.00536725 0.0146851 
v -0.00635 -0.04445 0.130175 
v -0.00635 -0.0436542 0.138548 
v -0.00635 -0.0412955 0.146621 
v -0.00635 -0.0374581 0.154106 
v -0.00635 -0.0192016 0.172259 
v -0.00635 0.0201291 0.229761 
v -0.00635 0.0324949 0.226438 
v -0.00635 -0.0105341 0.0336088 
v -0.00635 -0.00910253 0.0531729 
v -0.00635 -0.0106508 0.0434517 
v -0.00635 -0.0059339 0.0624926 
v -0.00635 -0.0138278 0.179504 
v -0.00635 0.00744345 0.231502 
v -0.00635 0.0276544 0.0953751 
v -0.00635 -0.0080335 0.196489 
v -0.00635 -0.00785863 0.205508 
v -0.00635 0.0443447 0.221587 
v -0.00635 -0.0322796 0.160734 
v -0.00635 -0.0259454 0.166267 
v -0.00635 -0.00536038 0.231633 
v -0.00635 -0.00953453 0.214372 
v -0.00635 -0.0129902 0.222705 
v -0.00635 -0.0100517 0.187697 
v -0.00635 1.30104e-18 0.003175 
v -0.00635 -0.0180791 0.230154 
vn 0 0 1 
vn 0 0.743145 0.669131 
vn 0 0.866025 0.5 
vn 0 0.587785 0.809017 
vn 0 0.743145 0.669131 
vn 0 0.406737 0.913545 
vn 0 0.587785 0.809017 
vn 0 0.207912 0.978148 
vn 0 0.406737 0.913545 
vn 0 -1.22465e-16 1 
vn 0 0.207912 0.978148 
vn 0 0.866025 0.5 
vn 0 -0.5 0.866025 
vn 0 0.669131 -0.743145 
vn 0 0.5 -0.866025 
vn 0 0.809017 -0.587785 
vn 0 0.669131 -0.743145 
vn 0 0.913545 -0.406737 
vn 0 0.809017 -0.587785 
vn 0 0.978148 -0.207912 
vn 0 0.913545 -0.406737 
vn 0 1 -4.2572e-15 
vn 0 0.978148 -0.207912 
vn 0 0.978148 0.207912 
vn 0 1 -4.2572e-15 
vn 0 0.913545 0.406737 
vn 0 0.978148 0.207912 
vn 0 0.809017 0.587785 
vn 0 0.913545 0.406737 
vn 0 0.669131 0.743145 
vn 0 0.809017 0.587785 
vn 0 0.5 0.866025 
vn 0 0.669131 0.743145 
vn 0 0.309017 0.951057 
vn 0 0.5 0.866025 
vn 0 0.104528 0.994522 
vn 0 0.309017 0.951057 
vn 0 -0.104528 0.994522 
vn 0 0.104528 0.994522 
vn 0 -0.309017 0.951057 
vn 0 -0.104528 0.994522 
vn 0 -0.5 0.866025 
vn 0 -0.309017 0.951057 
vn 0 0.5 -0.866025 
vn 0 0.866025 0.5 
vn 0 0.951057 -0.309017 
vn 0 0.866025 -0.5 
vn 0 0.994522 -0.104528 
vn 0 0.951057 -0.309017 
vn 0 0.994522 0.104528 
vn 0 0.994522 -0.104528 
vn 0 0.951057 0.309017 
vn 0 0.994522 0.104528 
vn 0 0.866025 0.5 
vn 0 0.951057 0.309017 
vn 0 0.866025 -0.5 
vn 0 0.5 0.866025 
vn 0 -0.309017 -0.951057 
vn 0 -0.5 -0.866025 
vn 0 -0.104528 -0.994522 
vn 0 -0.309017 -0.951057 
vn 0 0.104528 -0.994522 
vn 0 -0.104528 -0.994522 
vn 0 0.309017 -0.951057 
vn 0 0.104528 -0.994522 
vn 0 0.5 -0.866025 
vn 0 0.309017 -0.951057 
vn 0 0.669131 -0.743145 
vn 0 0.5 -0.866025 
vn 0 0.809017 -0.587785 
vn 0 0.669131 -0.743145 
vn 0 0.913545 -0.406737 
vn 0 0.809017 -0.587785 
vn 0 0.978148 -0.207912 
vn 0 0.913545 -0.406737 
vn 0 1 1.83697e-16 
vn 0 0.978148 -0.207912 
vn 0 0.978148 0.207912 
vn 0 1 1.83697e-16 
vn 0 0.913545 0.406737 
vn 0 0.978148 0.207912 
vn 0 0.809017 0.587785 
vn 0 0.913545 0.406737 
vn 0 0.669131 0.743145 
vn 0 0.809017 0.587785 
vn 0 0.5 0.866025 
vn 0 0.669131 0.743145 
vn 0 -0.5 -0.866025 
vn 0 0.866025 -0.5 
vn 0 0.207912 -0.978148 
vn 0 2.44929e-16 -1 
vn 0 0.406737 -0.913545 
vn 0 0.207912 -0.978148 
vn 0 0.587785 -0.809017 
vn 0 0.406737 -0.913545 
vn 0 0.743145 -0.669131 
vn 0 0.587785 -0.809017 
vn 0 0.866025 -0.5 
vn 0 0.743145 -0.669131 
vn 0 0 -1 
vn 0 1 9.10616e-17 
vn 0 0.978148 0.207912 
vn 0 0.913545 0.406737 
vn 0 0.809017 0.587785 
vn 0 0.669131 0.743145 
vn 0 0.5 0.866025 
vn 0 0.309017 0.951057 
vn 0 0.104528 0.994522 
vn 0 -0.104528 0.994522 
vn 0 -0.309017 0.951057 
vn 0 -0.5 0.866025 
vn 0 -0.669131 0.743145 
vn 0 -0.809017 0.587785 
vn 0 -0.913545 0.406737 
vn 0 -0.978148 0.207912 
vn 0 -1 -6.12323e-17 
vn 0 0 1 
vn 0 -0.207912 0.978148 
vn 0 -0.406737 0.913545 
vn 0 -0.587785 0.809017 
vn 0 -0.743145 0.669131 
vn 0 -0.866025 0.5 
vn 0 0.5 0.866025 
vn 0 0.309017 0.951057 
vn 0 0.104528 0.994522 
vn 0 -0.104528 0.994522 
vn 0 -0.309017 0.951057 
vn 0 -0.5 0.866025 
vn 0 -0.669131 0.743145 
vn 0 -0.809017 0.587785 
vn 0 -0.913545 0.406737 
vn 0 -0.978148 0.207912 
vn 0 -1 1.28174e-14 
vn 0 -0.978148 -0.207912 
vn 0 -0.913545 -0.406737 
vn 0 -0.809017 -0.587785 
vn 0 -0.669131 -0.743145 
vn 0 -0.5 -0.866025 
vn 0 -0.866025 0.5 
vn 0 -0.951057 0.309017 
vn 0 -0.994522 0.104528 
vn 0 -0.994522 -0.104528 
vn 0 -0.951057 -0.309017 
vn 0 -0.866025 -0.5 
vn 0 -0.5 0.866025 
vn 0 -0.669131 0.743145 
vn 0 -0.809017 0.587785 
vn 0 -0.913545 0.406737 
vn 0 -0.978148 0.207912 
vn 0 -1 -3.06162e-16 
vn 0 -0.978148 -0.207912 
vn 0 -0.913545 -0.406737 
vn 0 -0.809017 -0.587785 
vn 0 -0.669131 -0.743145 
vn 0 -0.5 -0.866025 
vn 0 -0.309017 -0.951057 
vn 0 -0.104528 -0.994522 
vn 0 0.104528 -0.994522 
vn 0 0.309017 -0.951057 
vn 0 0.5 -0.866025 
vn 0 -0.866025 -0.5 
vn 0 -0.743145 -0.669131 
vn 0 -0.587785 -0.809017 
vn 0 -0.406737 -0.913545 
vn 0 -0.207912 -0.978148 
vn 0 0 -1 
vn 0 -1 -2.73185e-16 
vn 0 -0.978148 -0.207912 
vn 0 -0.913545 -0.406737 
vn 0 -0.809017 -0.587785 
vn 0 -0.669131 -0.743145 
vn 0 -0.5 -0.866025 
vn 0 -0.309017 -0.951057 
vn 0 -0.104528 -0.994522 
vn 0 0.104528 -0.994522 
vn 0 0.309017 -0.951057 
vn 0 0.5 -0.866025 
vn 0 0.669131 -0.743145 
vn 0 0.809017 -0.587785 
vn 0 0.913545 -0.406737 
vn 0 0.978148 -0.207912 
vn 0 1 1.83697e-16 
vn 1 0 0 
vn -1 0 0 
vn 0 0.992743 -0.120255 
vn 0 0.991642 -0.129022 
vn 0 -0.177944 0.984041 
vn 0 -0.0527596 0.998607 
vn 0 0.0732623 0.997313 
vn 0 0.198121 0.980178 
vn 0 0.319832 0.947474 
vn 0 0.436464 0.899722 
vn 0 0.546163 0.837679 
vn 0 -0.737612 0.675224 
vn 0 -0.583698 0.811971 
vn 0 -0.86026 0.509856 
vn 0 -0.737612 0.675224 
vn 0 -0.946442 0.322874 
vn 0 -0.86026 0.509856 
vn 0 -0.992505 0.122207 
vn 0 -0.946442 0.322874 
vn 0 -0.996496 -0.0836412 
vn 0 -0.992505 0.122207 
vn 0 -0.958246 -0.285944 
vn 0 -0.996496 -0.0836412 
vn 0 -0.879378 -0.476125 
vn 0 -0.958246 -0.285944 
vn 0 -0.763232 -0.646124 
vn 0 -0.879378 -0.476125 
vn 0 -1 -1.12094e-13 
vn 0 -0.982098 0.188372 
vn 0 -0.929032 0.369999 
vn 0 -0.842703 0.538379 
vn 0 -0.726201 0.687482 
vn 0 -0.583698 0.811971 
vn 0 -0.999955 -0.00947177 
vn 0 -1 2.37971e-14 
vn 0 -0.175 -0.984568 
vn 0 -0.365177 -0.930938 
vn 0 -0.541096 -0.840961 
vn 0 -0.695889 -0.71815 
vn 0 -0.823512 -0.567299 
vn 0 -0.918982 -0.3943 
vn 0 -0.978572 -0.205905 
vn 0 -0.999955 -0.00947177 
vn 0 -0.175 -0.984568 
vn 0 0.906308 0.422618 
vn 0 0.604224 -0.796814 
vn 0 0.460892 -0.887456 
vn 0 0.730179 -0.683256 
vn 0 0.604224 -0.796814 
vn 0 0.835134 -0.550047 
vn 0 0.730179 -0.683256 
vn 0 0.91607 -0.401018 
vn 0 0.835134 -0.550047 
vn 0 0.97066 -0.240456 
vn 0 0.91607 -0.401018 
vn 0 0.997333 -0.072979 
vn 0 0.97066 -0.240456 
vn 0 0.995324 0.0965973 
vn 0 0.997333 -0.072979 
vn 0 0.964688 0.263395 
vn 0 0.995324 0.0965973 
vn 0 0.906308 0.422618 
vn 0 0.964688 0.263395 
vn 0 0.991642 -0.129022 
vn 0 0.948647 -0.316337 
vn 0 0.870613 -0.491968 
vn 0 0.760424 -0.649427 
vn 0 0.622147 -0.7829 
vn 0 0.460892 -0.887456 
usemtl 0.615686_0.811765_0.929412_0.000000_0.000000
o mesh0
f 1//1 2//1 3//1 
f 3//1 4//1 1//1 
o mesh1
f 5//2 6//3 7//3 
f 8//4 5//2 9//5 
f 10//6 8//4 11//7 
f 12//8 10//6 13//9 
f 4//10 12//8 14//11 
f 14//11 1//10 4//10 
f 13//9 14//11 12//8 
f 11//7 13//9 10//6 
f 9//5 11//7 8//4 
f 7//3 9//5 5//2 
o mesh2
f 7//12 6//12 15//12 
f 15//12 16//12 7//12 
o mesh3
f 15//13 17//13 18//13 
f 18//13 16//13 15//13 
o mesh4
f 19//14 20//15 21//15 
f 22//16 19//14 23//17 
f 24//18 22//16 25//19 
f 26//20 24//18 27//21 
f 28//22 26//20 29//23 
f 30//24 28//22 31//25 
f 32//26 30//24 33//27 
f 34//28 32//26 35//29 
f 36//30 34//28 37//31 
f 38//32 36//30 39//33 
f 40//34 38//32 41//35 
f 42//36 40//34 43//37 
f 44//38 42//36 45//39 
f 46//40 44//38 47//41 
f 17//42 46//40 48//43 
f 48//43 18//42 17//42 
f 47//41 48//43 46//40 
f 45//39 47//41 44//38 
f 43//37 45//39 42//36 
f 41//35 43//37 40//34 
f 39//33 41//35 38//32 
f 37//31 39//33 36//30 
f 35//29 37//31 34//28 
f 33//27 35//29 32//26 
f 31//25 33//27 30//24 
f 29//23 31//25 28//22 
f 27//21 29//23 26//20 
f 25//19 27//21 24//18 
f 23//17 25//19 22//16 
f 21//15 23//17 19//14 
o mesh5
f 49//44 50//44 21//44 
f 21//44 20//44 49//44 
o mesh6
f 50//45 49//45 51//45 
f 51//45 52//45 50//45 
o mesh7
f 53//46 54//47 55//47 
f 56//48 53//46 57//49 
f 58//50 56//48 59//51 
f 60//52 58//50 61//53 
f 51//54 60//52 62//55 
f 62//55 52//54 51//54 
f 61//53 62//55 60//52 
f 59//51 61//53 58//50 
f 57//49 59//51 56//48 
f 55//47 57//49 53//46 
o mesh8
f 55//56 54//56 63//56 
f 63//56 64//56 55//56 
o mesh9
f 63//57 65//57 66//57 
f 66//57 64//57 63//57 
o mesh10
f 67//58 68//59 69//59 
f 70//60 67//58 71//61 
f 72//62 70//60 73//63 
f 74//64 72//62 75//65 
f 76//66 74//64 77//67 
f 78//68 76//66 79//69 
f 80//70 78//68 81//71 
f 82//72 80//70 83//73 
f 84//74 82//72 85//75 
f 86//76 84//74 87//77 
f 88//78 86//76 89//79 
f 90//80 88//78 91//81 
f 92//82 90//80 93//83 
f 94//84 92//82 95//85 
f 65//86 94//84 96//87 
f 96//87 66//86 65//86 
f 95//85 96//87 94//84 
f 93//83 95//85 92//82 
f 91//81 93//83 90//80 
f 89//79 91//81 88//78 
f 87//77 89//79 86//76 
f 85//75 87//77 84//74 
f 83//73 85//75 82//72 
f 81//71 83//73 80//70 
f 79//69 81//71 78//68 
f 77//67 79//69 76//66 
f 75//65 77//67 74//64 
f 73//63 75//65 72//62 
f 71//61 73//63 70//60 
f 69//59 71//61 67//58 
o mesh11
f 97//88 98//88 69//88 
f 69//88 68//88 97//88 
o mesh12
f 99//89 98//89 97//89 
f 97//89 100//89 99//89 
o mesh13
f 101//90 102//91 103//91 
f 104//92 101//90 105//93 
f 106//94 104//92 107//95 
f 108//96 106//94 109//97 
f 100//98 108//96 110//99 
f 110//99 99//98 100//98 
f 109//97 110//99 108//96 
f 107//95 109//97 106//94 
f 105//93 107//95 104//92 
f 103//91 105//93 101//90 
o mesh14
f 103//100 102//100 111//100 
f 111//100 112//100 103//100 
o mesh15
f 113//101 3//101 2//101 
f 2//101 114//101 113//101 
o mesh16
f 115//102 113//101 114//101 
f 116//103 115//102 117//102 
f 118//104 116//103 119//103 
f 120//105 118//104 121//104 
f 122//106 120//105 123//105 
f 124//107 122//106 125//106 
f 126//108 124//107 127//107 
f 128//109 126//108 129//108 
f 130//110 128//109 131//109 
f 132//111 130//110 133//110 
f 134//112 132//111 135//111 
f 136//113 134//112 137//112 
f 138//114 136//113 139//113 
f 140//115 138//114 141//114 
f 142//116 140//115 143//115 
f 143//115 144//116 142//116 
f 141//114 143//115 140//115 
f 139//113 141//114 138//114 
f 137//112 139//113 136//113 
f 135//111 137//112 134//112 
f 133//110 135//111 132//111 
f 131//109 133//110 130//110 
f 129//108 131//109 128//109 
f 127//107 129//108 126//108 
f 125//106 127//107 124//107 
f 123//105 125//106 122//106 
f 121//104 123//105 120//105 
f 119//103 121//104 118//104 
f 117//102 119//103 116//103 
f 114//101 117//102 115//102 
o mesh17
f 145//116 142//116 144//116 
f 144//116 146//116 145//116 
o mesh18
f 147//117 148//117 145//117 
f 145//117 146//117 147//117 
o mesh19
f 149//118 148//117 147//117 
f 150//119 149//118 151//118 
f 152//120 150//119 153//119 
f 154//121 152//120 155//120 
f 156//122 154//121 157//121 
f 157//121 158//122 156//122 
f 155//120 157//121 154//121 
f 153//119 155//120 152//120 
f 151//118 153//119 150//119 
f 147//117 151//118 149//118 
o mesh20
f 158//122 159//122 160//122 
f 160//122 156//122 158//122 
o mesh21
f 161//123 160//123 159//123 
f 159//123 162//123 161//123 
o mesh22
f 163//124 161//123 162//123 
f 164//125 163//124 165//124 
f 166//126 164//125 167//125 
f 168//127 166//126 169//126 
f 170//128 168//127 171//127 
f 172//129 170//128 173//128 
f 174//130 172//129 175//129 
f 176//131 174//130 177//130 
f 178//132 176//131 179//131 
f 180//133 178//132 181//132 
f 182//134 180//133 183//133 
f 184//135 182//134 185//134 
f 186//136 184//135 187//135 
f 188//137 186//136 189//136 
f 190//138 188//137 191//137 
f 191//137 192//138 190//138 
f 189//136 191//137 188//137 
f 187//135 189//136 186//136 
f 185//134 187//135 184//135 
f 183//133 185//134 182//134 
f 181//132 183//133 180//133 
f 179//131 181//132 178//132 
f 177//130 179//131 176//131 
f 175//129 177//130 174//130 
f 173//128 175//129 172//129 
f 171//127 173//128 170//128 
f 169//126 171//127 168//127 
f 167//125 169//126 166//126 
f 165//124 167//125 164//125 
f 162//123 165//124 163//124 
o mesh23
f 193//138 190//138 192//138 
f 192//138 194//138 193//138 
o mesh24
f 195//139 196//139 193//139 
f 193//139 194//139 195//139 
o mesh25
f 197//140 196//139 195//139 
f 198//141 197//140 199//140 
f 200//142 198//141 201//141 
f 202//143 200//142 203//142 
f 204//144 202//143 205//143 
f 205//143 206//144 204//144 
f 203//142 205//143 202//143 
f 201//141 203//142 200//142 
f 199//140 201//141 198//141 
f 195//139 199//140 197//140 
o mesh26
f 206//144 207//144 208//144 
f 208//144 204//144 206//144 
o mesh27
f 208//145 207//145 209//145 
f 209//145 210//145 208//145 
o mesh28
f 211//146 210//145 209//145 
f 212//147 211//146 213//146 
f 214//148 212//147 215//147 
f 216//149 214//148 217//148 
f 218//150 216//149 219//149 
f 220//151 218//150 221//150 
f 222//152 220//151 223//151 
f 224//153 222//152 225//152 
f 226//154 224//153 227//153 
f 228//155 226//154 229//154 
f 230//156 228//155 231//155 
f 232//157 230//156 233//156 
f 234//158 232//157 235//157 
f 236//159 234//158 237//158 
f 238//160 236//159 239//159 
f 239//159 240//160 238//160 
f 237//158 239//159 236//159 
f 235//157 237//158 234//158 
f 233//156 235//157 232//157 
f 231//155 233//156 230//156 
f 229//154 231//155 228//155 
f 227//153 229//154 226//154 
f 225//152 227//153 224//153 
f 223//151 225//152 222//152 
f 221//150 223//151 220//151 
f 219//149 221//150 218//150 
f 217//148 219//149 216//149 
f 215//147 217//148 214//148 
f 213//146 215//147 212//147 
f 209//145 213//146 211//146 
o mesh29
f 240//160 241//160 242//160 
f 242//160 238//160 240//160 
o mesh30
f 243//161 242//161 241//161 
f 241//161 244//161 243//161 
o mesh31
f 245//162 243//161 244//161 
f 246//163 245//162 247//162 
f 248//164 246//163 249//163 
f 250//165 248//164 251//164 
f 252//166 250//165 253//165 
f 253//165 254//166 252//166 
f 251//164 253//165 250//165 
f 249//163 251//164 248//164 
f 247//162 249//163 246//163 
f 244//161 247//162 245//162 
o mesh32
f 254//166 255//166 256//166 
f 256//166 252//166 254//166 
o mesh33
f 257//167 256//167 255//167 
f 255//167 258//167 257//167 
o mesh34
f 259//168 257//167 258//167 
f 260//169 259//168 261//168 
f 262//170 260//169 263//169 
f 264//171 262//170 265//170 
f 266//172 264//171 267//171 
f 268//173 266//172 269//172 
f 270//174 268//173 271//173 
f 272//175 270//174 273//174 
f 274//176 272//175 275//175 
f 276//177 274//176 277//176 
f 278//178 276//177 279//177 
f 280//179 278//178 281//178 
f 282//180 280//179 283//179 
f 284//181 282//180 285//180 
f 286//182 284//181 287//181 
f 287//181 288//182 286//182 
f 285//180 287//181 284//181 
f 283//179 285//180 282//180 
f 281//178 283//179 280//179 
f 279//177 281//178 278//178 
f 277//176 279//177 276//177 
f 275//175 277//176 274//176 
f 273//174 275//175 272//175 
f 271//173 273//174 270//174 
f 269//172 271//173 268//173 
f 267//171 269//172 266//172 
f 265//170 267//171 264//171 
f 263//169 265//170 262//170 
f 261//168 263//169 260//169 
f 258//167 261//168 259//168 
o mesh35
f 111//182 286//182 288//182 
f 288//182 112//182 111//182 
o mesh36
f 254//183 261//183 258//183 
f 289//183 181//183 179//183 
f 258//183 255//183 254//183 
f 290//183 265//183 263//183 
f 105//183 288//183 287//183 
f 288//183 105//183 103//183 
f 291//183 292//183 177//183 
f 179//183 292//183 289//183 
f 293//183 225//183 223//183 
f 293//183 229//183 227//183 
f 254//183 253//183 261//183 
f 290//183 267//183 265//183 
f 267//183 290//183 294//183 
f 295//183 283//183 281//183 
f 103//183 112//183 288//183 
f 296//183 87//183 85//183 
f 179//183 177//183 292//183 
f 289//183 185//183 183//183 
f 192//183 199//183 195//183 
f 213//183 289//183 297//183 
f 227//183 225//183 293//183 
f 237//183 298//183 290//183 
f 251//183 263//183 261//183 
f 294//183 269//183 267//183 
f 295//183 285//183 283//183 
f 287//183 295//183 105//183 
f 85//183 299//183 296//183 
f 183//183 181//183 289//183 
f 289//183 189//183 187//183 
f 289//183 199//183 191//183 
f 195//183 194//183 192//183 
f 297//183 217//183 215//183 
f 223//183 297//183 293//183 
f 300//183 237//183 235//183 
f 298//183 301//183 290//183 
f 301//183 298//183 302//183 
f 290//183 249//183 247//183 
f 263//183 251//183 290//183 
f 275//183 303//183 304//183 
f 277//183 304//183 295//183 
f 287//183 285//183 295//183 
f 105//183 295//183 305//183 
f 305//183 306//183 109//183 
f 99//183 306//183 69//183 
f 299//183 83//183 81//183 
f 296//183 89//183 87//183 
f 296//183 95//183 93//183 
f 45//183 307//183 308//183 
f 144//183 151//183 147//183 
f 187//183 185//183 289//183 
f 192//183 191//183 199//183 
f 213//183 206//183 205//183 
f 206//183 213//183 209//183 
f 297//183 219//183 217//183 
f 293//183 231//183 229//183 
f 293//183 309//183 233//183 
f 235//183 310//183 300//183 
f 302//183 311//183 301//183 
f 240//183 247//183 244//183 
f 290//183 251//183 249//183 
f 294//183 271//183 269//183 
f 294//183 275//183 273//183 
f 275//183 294//183 303//183 
f 281//183 279//183 295//183 
f 109//183 107//183 305//183 
f 306//183 71//183 69//183 
f 306//183 312//183 79//183 
f 85//183 83//183 299//183 
f 93//183 91//183 296//183 
f 45//183 313//183 307//183 
f 45//183 43//183 314//183 
f 114//183 2//183 1//183 
f 153//183 143//183 141//183 
f 147//183 146//183 144//183 
f 169//183 315//183 316//183 
f 316//183 291//183 173//183 
f 191//183 189//183 289//183 
f 209//183 207//183 206//183 
f 297//183 221//183 219//183 
f 233//183 231//183 293//183 
f 310//183 235//183 233//183 
f 290//183 239//183 237//183 
f 244//183 241//183 240//183 
f 253//183 251//183 261//183 
f 304//183 277//183 275//183 
f 305//183 107//183 105//183 
f 69//183 98//183 99//183 
f 306//183 77//183 75//183 
f 312//183 81//183 79//183 
f 91//183 89//183 296//183 
f 23//183 96//183 95//183 
f 52//183 23//183 21//183 
f 317//183 35//183 33//183 
f 314//183 37//183 35//183 
f 308//183 318//183 45//183 
f 314//183 319//183 45//183 
f 47//183 320//183 321//183 
f 14//183 117//183 114//183 
f 322//183 135//183 133//183 
f 322//183 139//183 137//183 
f 141//183 322//183 153//183 
f 143//183 153//183 151//183 
f 322//183 165//183 157//183 
f 158//183 165//183 162//183 
f 173//183 171//183 316//183 
f 177//183 175//183 291//183 
f 289//183 203//183 201//183 
f 205//183 289//183 213//183 
f 223//183 221//183 297//183 
f 300//183 298//183 237//183 
f 247//183 239//183 290//183 
f 295//183 279//183 277//183 
f 99//183 110//183 306//183 
f 79//183 77//183 306//183 
f 95//183 296//183 23//183 
f 23//183 61//183 59//183 
f 21//183 50//183 52//183 
f 23//183 296//183 323//183 
f 25//183 323//183 317//183 
f 35//183 317//183 314//183 
f 314//183 41//183 39//183 
f 319//183 313//183 45//183 
f 45//183 324//183 325//183 
f 326//183 324//183 327//183 
f 47//183 328//183 320//183 
f 7//183 16//183 18//183 
f 1//183 14//183 114//183 
f 13//183 321//183 119//183 
f 321//183 125//183 123//183 
f 321//183 129//183 127//183 
f 137//183 135//183 322//183 
f 144//183 143//183 151//183 
f 157//183 155//183 322//183 
f 162//183 159//183 158//183 
f 165//183 322//183 329//183 
f 167//183 329//183 315//183 
f 175//183 173//183 291//183 
f 205//183 203//183 289//183 
f 233//183 309//183 310//183 
f 273//183 271//183 294//183 
f 306//183 73//183 71//183 
f 81//183 312//183 299//183 
f 66//183 57//183 55//183 
f 59//183 96//183 23//183 
f 52//183 62//183 23//183 
f 317//183 27//183 25//183 
f 317//183 31//183 29//183 
f 39//183 37//183 314//183 
f 318//183 324//183 45//183 
f 324//183 326//183 325//183 
f 327//183 330//183 331//183 
f 47//183 332//183 328//183 
f 48//183 9//183 7//183 
f 321//183 11//183 9//183 
f 119//183 117//183 13//183 
f 127//183 125//183 321//183 
f 129//183 321//183 322//183 
f 141//183 139//183 322//183 
f 158//183 157//183 165//183 
f 315//183 169//183 167//183 
f 201//183 199//183 289//183 
f 240//183 239//183 247//183 
f 75//183 73//183 306//183 
f 55//183 64//183 66//183 
f 62//183 61//183 23//183 
f 29//183 27//183 317//183 
f 43//183 41//183 314//183 
f 327//183 331//183 326//183 
f 47//183 325//183 332//183 
f 9//183 48//183 321//183 
f 321//183 121//183 119//183 
f 322//183 131//183 129//183 
f 155//183 153//183 322//183 
f 316//183 171//183 169//183 
f 110//183 109//183 306//183 
f 59//183 57//183 96//183 
f 33//183 31//183 317//183 
f 321//183 48//183 47//183 
f 321//183 13//183 11//183 
f 123//183 121//183 321//183 
f 329//183 167//183 165//183 
f 66//183 96//183 57//183 
f 325//183 47//183 45//183 
f 14//183 13//183 117//183 
f 297//183 215//183 213//183 
f 18//183 48//183 7//183 
f 323//183 25//183 23//183 
f 133//183 131//183 322//183 
o mesh37
f 333//184 202//184 204//184 
f 333//184 211//184 212//184 
f 204//184 210//184 333//184 
f 212//184 214//184 333//184 
f 204//184 208//184 210//184 
f 190//184 193//184 196//184 
f 333//184 188//184 190//184 
f 42//184 334//184 335//184 
f 42//184 336//184 337//184 
f 214//184 216//184 333//184 
f 333//184 200//184 202//184 
f 190//184 197//184 333//184 
f 338//184 178//184 180//184 
f 338//184 339//184 176//184 
f 340//184 341//184 132//184 
f 128//184 130//184 341//184 
f 113//184 12//184 4//184 
f 42//184 342//184 334//184 
f 337//184 343//184 42//184 
f 210//184 211//184 333//184 
f 333//184 186//184 188//184 
f 333//184 182//184 184//184 
f 180//184 333//184 338//184 
f 339//184 174//184 176//184 
f 344//184 172//184 174//184 
f 148//184 340//184 142//184 
f 132//184 134//184 340//184 
f 341//184 345//184 128//184 
f 4//184 3//184 113//184 
f 343//184 342//184 42//184 
f 346//184 222//184 224//184 
f 346//184 333//184 220//184 
f 333//184 198//184 200//184 
f 196//184 197//184 190//184 
f 180//184 182//184 333//184 
f 174//184 339//184 344//184 
f 142//184 145//184 148//184 
f 130//184 132//184 341//184 
f 126//184 128//184 345//184 
f 347//184 122//184 124//184 
f 347//184 118//184 120//184 
f 10//184 115//184 116//184 
f 115//184 10//184 12//184 
f 42//184 348//184 336//184 
f 346//184 228//184 230//184 
f 220//184 222//184 346//184 
f 197//184 198//184 333//184 
f 176//184 178//184 338//184 
f 161//184 340//184 156//184 
f 340//184 140//184 142//184 
f 345//184 347//184 126//184 
f 120//184 122//184 347//184 
f 113//184 115//184 12//184 
f 6//184 46//184 17//184 
f 349//184 350//184 351//184 
f 44//184 46//184 347//184 
f 335//184 38//184 40//184 
f 335//184 34//184 36//184 
f 335//184 352//184 32//184 
f 352//184 28//184 30//184 
f 352//184 353//184 88//184 
f 354//184 355//184 82//184 
f 102//184 356//184 286//184 
f 276//184 278//184 356//184 
f 257//184 250//184 252//184 
f 357//184 358//184 232//184 
f 346//184 226//184 228//184 
f 333//184 218//184 220//184 
f 184//184 186//184 333//184 
f 156//184 160//184 161//184 
f 148//184 149//184 340//184 
f 340//184 136//184 138//184 
f 124//184 126//184 347//184 
f 116//184 347//184 10//184 
f 347//184 46//184 5//184 
f 17//184 15//184 6//184 
f 349//184 359//184 350//184 
f 44//184 360//184 361//184 
f 347//184 362//184 44//184 
f 36//184 38//184 335//184 
f 30//184 32//184 352//184 
f 352//184 24//184 26//184 
f 352//184 19//184 22//184 
f 51//184 49//184 20//184 
f 88//184 90//184 352//184 
f 354//184 84//184 86//184 
f 355//184 80//184 82//184 
f 356//184 284//184 286//184 
f 356//184 363//184 276//184 
f 364//184 260//184 262//184 
f 250//184 259//184 260//184 
f 252//184 256//184 257//184 
f 234//184 364//184 357//184 
f 224//184 226//184 346//184 
f 344//184 170//184 172//184 
f 365//184 168//184 170//184 
f 166//184 168//184 365//184 
f 340//184 163//184 164//184 
f 340//184 154//184 156//184 
f 138//184 140//184 340//184 
f 116//184 118//184 347//184 
f 6//184 5//184 46//184 
f 349//184 361//184 359//184 
f 362//184 360//184 44//184 
f 32//184 34//184 335//184 
f 22//184 24//184 352//184 
f 352//184 60//184 51//184 
f 54//184 352//184 65//184 
f 353//184 86//184 88//184 
f 82//184 84//184 354//184 
f 286//184 111//184 102//184 
f 278//184 280//184 356//184 
f 272//184 366//184 367//184 
f 262//184 264//184 364//184 
f 257//184 259//184 250//184 
f 364//184 245//184 246//184 
f 236//184 243//184 245//184 
f 243//184 236//184 238//184 
f 232//184 234//184 357//184 
f 358//184 368//184 230//184 
f 216//184 218//184 333//184 
f 365//184 340//184 166//184 
f 161//184 163//184 340//184 
f 340//184 150//184 152//184 
f 134//184 136//184 340//184 
f 5//184 8//184 347//184 
f 361//184 349//184 44//184 
f 44//184 349//184 348//184 
f 26//184 28//184 352//184 
f 20//184 352//184 51//184 
f 352//184 56//184 58//184 
f 352//184 94//184 65//184 
f 86//184 353//184 354//184 
f 355//184 369//184 78//184 
f 370//184 74//184 76//184 
f 370//184 108//184 68//184 
f 68//184 108//184 100//184 
f 102//184 101//184 356//184 
f 280//184 282//184 356//184 
f 371//184 372//184 373//184 
f 367//184 371//184 272//184 
f 260//184 364//184 250//184 
f 246//184 248//184 364//184 
f 238//184 242//184 243//184 
f 230//184 232//184 358//184 
f 170//184 344//184 365//184 
f 152//184 154//184 340//184 
f 8//184 10//184 347//184 
f 348//184 42//184 44//184 
f 20//184 19//184 352//184 
f 352//184 53//184 56//184 
f 65//184 63//184 54//184 
f 78//184 80//184 355//184 
f 76//184 369//184 370//184 
f 370//184 70//184 72//184 
f 100//184 97//184 68//184 
f 282//184 284//184 356//184 
f 274//184 276//184 363//184 
f 367//184 372//184 371//184 
f 272//184 274//184 374//184 
f 264//184 266//184 364//184 
f 245//184 364//184 236//184 
f 230//184 368//184 346//184 
f 149//184 150//184 340//184 
f 335//184 40//184 42//184 
f 54//184 53//184 352//184 
f 90//184 92//184 352//184 
f 72//184 74//184 370//184 
f 68//184 67//184 370//184 
f 356//184 104//184 106//184 
f 363//184 374//184 274//184 
f 374//184 366//184 272//184 
f 371//184 364//184 270//184 
f 248//184 250//184 364//184 
f 164//184 166//184 340//184 
f 58//184 60//184 352//184 
f 76//184 78//184 369//184 
f 370//184 106//184 108//184 
f 101//184 104//184 356//184 
f 270//184 272//184 371//184 
f 266//184 268//184 364//184 
f 351//184 375//184 349//184 
f 67//184 70//184 370//184 
f 373//184 376//184 371//184 
f 234//184 236//184 364//184 
f 106//184 370//184 356//184 
f 92//184 94//184 352//184 
f 268//184 270//184 364//184 
o mesh38
f 346//185 293//185 297//186 
f 297//186 333//186 346//185 
o mesh39
f 376//187 311//187 302//188 
f 371//188 302//188 298//189 
f 364//189 298//189 300//190 
f 357//190 300//190 310//191 
f 358//191 310//191 309//192 
f 368//192 309//192 293//193 
f 293//193 346//193 368//192 
f 309//192 368//192 358//191 
f 310//191 358//191 357//190 
f 300//190 357//190 364//189 
f 298//189 364//189 371//188 
f 302//188 371//188 376//187 
o mesh40
f 356//194 370//195 306//195 
f 363//196 356//194 305//197 
f 374//198 363//196 295//199 
f 366//200 374//198 304//201 
f 367//202 366//200 303//203 
f 372//204 367//202 294//205 
f 373//206 372//204 290//207 
f 376//208 373//206 301//209 
f 301//209 311//208 376//208 
f 290//207 301//209 373//206 
f 294//205 290//207 372//204 
f 303//203 294//205 367//202 
f 304//201 303//203 366//200 
f 295//199 304//201 374//198 
f 305//197 295//199 363//196 
f 306//195 305//197 356//194 
o mesh41
f 352//210 317//210 323//211 
f 353//211 323//211 296//212 
f 354//212 296//212 299//213 
f 355//213 299//213 312//214 
f 369//214 312//214 306//215 
f 306//215 370//215 369//214 
f 312//214 369//214 355//213 
f 299//213 355//213 354//212 
f 296//212 354//212 353//211 
f 323//211 353//211 352//210 
o mesh42
f 335//216 314//216 317//217 
f 317//217 352//217 335//216 
o mesh43
f 349//218 327//218 324//219 
f 348//219 324//219 318//220 
f 336//220 318//220 308//221 
f 337//221 308//221 307//222 
f 343//222 307//222 313//223 
f 342//223 313//223 319//224 
f 334//224 319//224 314//225 
f 314//225 335//225 334//224 
f 319//224 334//224 342//223 
f 313//223 342//223 343//222 
f 307//222 343//222 337//221 
f 308//221 337//221 336//220 
f 318//220 336//220 348//219 
f 324//219 348//219 349//218 
o mesh44
f 327//226 349//226 375//226 
f 375//226 330//226 327//226 
o mesh45
f 330//227 375//227 351//227 
f 351//227 331//227 330//227 
o mesh46
f 341//228 340//229 315//229 
f 345//230 341//228 329//231 
f 347//232 345//230 322//233 
f 362//234 347//232 321//235 
f 360//236 362//234 320//237 
f 361//238 360//236 328//239 
f 359//240 361//238 332//241 
f 350//242 359//240 325//243 
f 351//244 350//242 326//245 
f 326//245 331//244 351//244 
f 325//243 326//245 350//242 
f 332//241 325//243 359//240 
f 328//239 332//241 361//238 
f 320//237 328//239 360//236 
f 321//235 320//237 362//234 
f 322//233 321//235 347//232 
f 329//231 322//233 345//230 
f 315//229 329//231 341//228 
o mesh47
f 333//246 297//246 289//247 
f 338//247 289//247 292//248 
f 339//248 292//248 291//249 
f 344//249 291//249 316//250 
f 365//250 316//250 315//251 
f 315//251 340//251 365//250 
f 316//250 365//250 344//249 
f 291//249 344//249 339//248 
f 292//248 339//248 338//247 
f 289//247 338//247 333//246 
