# OBJ generated by ONSHAPE BY PTC INC, 1.197 Units = meters
mtllib fork.mtl
g TPU pontoon
v 0.0698024 0.09451 0.00891373 
v 0.0760889 0.09451 0.00891373 
v 0.0760889 0.0948134 0.00889728 
v 0.0698024 0.0948134 0.00889728 
v 0.0760889 0.0951132 0.00884813 
v 0.0698024 0.0951132 0.00884813 
v 0.0760889 0.095406 0.00876685 
v 0.0698024 0.095406 0.00876685 
v 0.0760889 0.0956882 0.0086544 
v 0.0698024 0.0956882 0.0086544 
v 0.0760889 0.0959566 0.00851209 
v 0.0698024 0.0959566 0.00851209 
v 0.0760889 0.0962081 0.0083416 
v 0.0698024 0.0962081 0.0083416 
v 0.0760889 0.0964396 0.00814491 
v 0.0698024 0.0964396 0.00814491 
v 0.0760889 0.0966486 0.00792435 
v 0.0698024 0.0966486 0.00792435 
v 0.0760889 0.0968324 0.00768248 
v 0.0698024 0.0968324 0.00768248 
v 0.0760889 0.0969891 0.00742216 
v 0.0698024 0.0969891 0.00742216 
v 0.0760889 0.0971166 0.00714642 
v 0.0698024 0.0971166 0.00714642 
v 0.0760889 0.0972136 0.00685851 
v 0.0698024 0.0972136 0.00685851 
v 0.0760889 0.0972789 0.0065618 
v 0.0698024 0.0972789 0.0065618 
v 0.0760889 0.0973118 0.00625977 
v 0.0698024 0.0973118 0.00625977 
v 0.0760889 0.0973118 0.00595596 
v 0.0698024 0.0973118 0.00595596 
v 0.0760889 0.0972789 0.00565393 
v 0.0698024 0.0972789 0.00565393 
v 0.0760889 0.0972136 0.00535722 
v 0.0698024 0.0972136 0.00535722 
v 0.0760889 0.0971166 0.00506931 
v 0.0698024 0.0971166 0.00506931 
v 0.0760889 0.0969891 0.00479357 
v 0.0698024 0.0969891 0.00479357 
v 0.0760889 0.0968324 0.00453325 
v 0.0698024 0.0968324 0.00453325 
v 0.0760889 0.0966486 0.00429139 
v 0.0698024 0.0966486 0.00429139 
v 0.0760889 0.0964396 0.00407082 
v 0.0698024 0.0964396 0.00407082 
v 0.0760889 0.0962081 0.00387414 
v 0.0698024 0.0962081 0.00387414 
v 0.0760889 0.0959566 0.00370364 
v 0.0698024 0.0959566 0.00370364 
v 0.0760889 0.0956882 0.00356133 
v 0.0698024 0.0956882 0.00356133 
v 0.0760889 0.095406 0.00344888 
v 0.0698024 0.095406 0.00344888 
v 0.0760889 0.0951132 0.0033676 
v 0.0698024 0.0951132 0.0033676 
v 0.0760889 0.0948134 0.00331845 
v 0.0698024 0.0948134 0.00331845 
v 0.0760889 0.09451 0.003302 
v 0.0698024 0.09451 0.003302 
v 0.0760889 0.0942067 0.00331845 
v 0.0698024 0.0942067 0.00331845 
v 0.0760889 0.0939069 0.0033676 
v 0.0698024 0.0939069 0.0033676 
v 0.0760889 0.0936141 0.00344888 
v 0.0698024 0.0936141 0.00344888 
v 0.0760889 0.0933319 0.00356133 
v 0.0698024 0.0933319 0.00356133 
v 0.0760889 0.0930635 0.00370364 
v 0.0698024 0.0930635 0.00370364 
v 0.0760889 0.092812 0.00387414 
v 0.0698024 0.092812 0.00387414 
v 0.0760889 0.0925804 0.00407082 
v 0.0698024 0.0925804 0.00407082 
v 0.0760889 0.0923715 0.00429139 
v 0.0698024 0.0923715 0.00429139 
v 0.0760889 0.0921877 0.00453325 
v 0.0698024 0.0921877 0.00453325 
v 0.0760889 0.092031 0.00479357 
v 0.0698024 0.092031 0.00479357 
v 0.0760889 0.0919035 0.00506931 
v 0.0698024 0.0919035 0.00506931 
v 0.0760889 0.0918064 0.00535722 
v 0.0698024 0.0918064 0.00535722 
v 0.0760889 0.0917411 0.00565393 
v 0.0698024 0.0917411 0.00565393 
v 0.0760889 0.0917083 0.00595596 
v 0.0698024 0.0917083 0.00595596 
v 0.0760889 0.0917083 0.00625977 
v 0.0698024 0.0917083 0.00625977 
v 0.0760889 0.0917411 0.0065618 
v 0.0698024 0.0917411 0.0065618 
v 0.0760889 0.0918064 0.00685851 
v 0.0698024 0.0918064 0.00685851 
v 0.0760889 0.0919035 0.00714642 
v 0.0698024 0.0919035 0.00714642 
v 0.0760889 0.092031 0.00742216 
v 0.0698024 0.092031 0.00742216 
v 0.0760889 0.0921877 0.00768248 
v 0.0698024 0.0921877 0.00768248 
v 0.0760889 0.0923715 0.00792435 
v 0.0698024 0.0923715 0.00792435 
v 0.0760889 0.0925804 0.00814491 
v 0.0698024 0.0925804 0.00814491 
v 0.0760889 0.092812 0.0083416 
v 0.0698024 0.092812 0.0083416 
v 0.0760889 0.0930635 0.00851209 
v 0.0698024 0.0930635 0.00851209 
v 0.0760889 0.0933319 0.0086544 
v 0.0698024 0.0933319 0.0086544 
v 0.0760889 0.0936141 0.00876685 
v 0.0698024 0.0936141 0.00876685 
v 0.0760889 0.0939069 0.00884813 
v 0.0698024 0.0939069 0.00884813 
v 0.0760889 0.0942067 0.00889728 
v 0.0698024 0.0942067 0.00889728 
v 0.0760889 0.101212 -2.4638e-18 
v 0.0760889 0.0695364 -1.73516e-18 
v 0.0760889 0.102191 0.000340167 
v 0.0760889 0.10171 0.000144093 
v 0.0760889 0.102647 0.000586014 
v 0.0760889 0.104411 0.0024473 
v 0.0760889 0.104142 0.00200408 
v 0.0760889 0.0800065 0.0205114 
v 0.0760889 0.104944 0.00546208 
v 0.0760889 0.10492 0.00391193 
v 0.0760889 0.104633 0.00291657 
v 0.0760889 0.103827 0.00159191 
v 0.0760889 0.10347 0.00121543 
v 0.0760889 0.102328 0.00911744 
v 0.0760889 0.103195 0.00855134 
v 0.0760889 0.104226 0.00739332 
v 0.0760889 0.104482 0.00694189 
v 0.0760889 0.103924 0.00781513 
v 0.0760889 0.104688 0.00646593 
v 0.0760889 0.104991 0.00494548 
v 0.0760889 0.104983 0.00442681 
v 0.0760889 0.104803 0.00340662 
v 0.0760889 0.103075 0.000878866 
v 0.0760889 0.103579 0.00820259 
v 0.0760889 0.104843 0.0059708 
v 0.0760889 0.102777 0.00885743 
v 0.0698024 0.0800065 0.0205114 
v 0.0698024 0.102328 0.00911744 
v 0.0698024 0.102777 0.00885743 
v 0.0698024 0.103195 0.00855134 
v 0.0698024 0.101212 -2.4638e-18 
v 0.0698024 0.104142 0.00200408 
v 0.0698024 0.0695364 -1.73516e-18 
v 0.0698024 0.10171 0.000144093 
v 0.0698024 0.10347 0.00121543 
v 0.0698024 0.104411 0.0024473 
v 0.0698024 0.10492 0.00391193 
v 0.0698024 0.104983 0.00442681 
v 0.0698024 0.104991 0.00494548 
v 0.0698024 0.104944 0.00546208 
v 0.0698024 0.102191 0.000340167 
v 0.0698024 0.102647 0.000586014 
v 0.0698024 0.103827 0.00159191 
v 0.0698024 0.104633 0.00291657 
v 0.0698024 0.104803 0.00340662 
v 0.0698024 0.104843 0.0059708 
v 0.0698024 0.104688 0.00646593 
v 0.0698024 0.104226 0.00739332 
v 0.0698024 0.103924 0.00781513 
v 0.0698024 0.104482 0.00694189 
v 0.0698024 0.103579 0.00820259 
v 0.0698024 0.103075 0.000878866 
v 0.0799103 0.0814343 0.0233085 
v 0.0792489 0.08145 0.0233393 
v 0.0805644 0.0813873 0.0232166 
v 0.0818228 0.0812022 0.0228538 
v 0.0812042 0.0813097 0.0230645 
v 0.0829695 0.0809025 0.0222668 
v 0.0824134 0.081066 0.022587 
v 0.0839548 0.0805013 0.0214808 
v 0.0834852 0.0807136 0.0218967 
v 0.062406 0.0807136 0.0218967 
v 0.0619364 0.0805013 0.0214808 
v 0.0629217 0.0809025 0.0222668 
v 0.0634779 0.081066 0.022587 
v 0.064687 0.0813097 0.0230645 
v 0.0640684 0.0812022 0.0228538 
v 0.065981 0.0814343 0.0233085 
v 0.0653268 0.0813873 0.0232166 
v 0.0843733 0.080268 0.0210237 
v 0.0666423 0.08145 0.0233393 
v 0.101648 0.0695364 -1.73516e-18 
v 0.061518 0.080268 0.0210237 
v 0.0442436 0.0695364 -1.73516e-18 
v 0.0792489 0.127173 6.12495e-19 
v 0.0666423 0.127173 6.12495e-19 
v 0.0843733 0.121454 -1.68531e-19 
v 0.0839548 0.122583 3.92766e-20 
v 0.0834852 0.12361 1.67549e-19 
v 0.0829695 0.124524 2.81688e-19 
v 0.0824134 0.125315 3.80451e-19 
v 0.082122 0.125661 4.23724e-19 
v 0.0818228 0.125974 4.62765e-19 
v 0.0815166 0.126252 4.97466e-19 
v 0.0812042 0.126494 5.27734e-19 
v 0.0808866 0.1267 5.53486e-19 
v 0.0805644 0.12687 5.74652e-19 
v 0.0802387 0.127002 5.91175e-19 
v 0.0795801 0.127154 6.10122e-19 
v 0.0794146 0.127168 6.11902e-19 
v 0.0797453 0.12713 6.07157e-19 
v 0.0799103 0.127097 6.03009e-19 
v 0.0661459 0.12713 6.67869e-17 
v 0.065981 0.127097 4.25007e-17 
v 0.0664767 0.127168 3.81639e-17 
v 0.0663112 0.127154 4.0766e-17 
v 0.0656526 0.127002 7.63278e-17 
v 0.0653268 0.12687 8.41341e-17 
v 0.0650047 0.1267 2.25514e-17 
v 0.064687 0.126494 5.63785e-17 
v 0.0643746 0.126252 3.81639e-17 
v 0.0640684 0.125974 3.29597e-17 
v 0.0637692 0.125661 5.81132e-17 
v 0.0634779 0.125315 2.51535e-17 
v 0.0629217 0.124524 2.08167e-17 
v 0.062406 0.12361 2.1684e-17 
v 0.0619364 0.122583 -5.20417e-18 
v 0.061518 0.121454 -1.68531e-19 
v 0.0898535 0.0890402 0.0081384 
v 0.0899658 0.0890196 0.00797663 
v 0.0891424 0.0881894 0.00966362 
v 0.089768 0.0860697 0.00978576 
v 0.0896641 0.0862151 0.00987103 
v 0.0903394 0.0855837 0.00915733 
v 0.0902227 0.0856446 0.00930526 
v 0.0904545 0.0855427 0.00900156 
v 0.0910414 0.0857247 0.00800836 
v 0.0909619 0.0856446 0.00817111 
v 0.091218 0.0860697 0.00756121 
v 0.0911702 0.0859385 0.00770162 
v 0.0897453 0.0890402 0.00830429 
v 0.0895466 0.0889786 0.0086406 
v 0.0896426 0.0890196 0.00847235 
v 0.0891662 0.0883473 0.00954649 
v 0.0891464 0.0876599 0.0099277 
v 0.0891324 0.0878437 0.00985534 
v 0.0892115 0.0872812 0.0100212 
v 0.0891729 0.0874716 0.00998319 
v 0.0895665 0.0863729 0.00994009 
v 0.0901058 0.0857247 0.00944363 
v 0.0899902 0.0858231 0.0095708 
v 0.091111 0.0858231 0.00785125 
v 0.0912541 0.0862151 0.00743169 
v 0.0893789 0.0888376 0.00896982 
v 0.0894584 0.0889177 0.00880708 
v 0.0892022 0.0884926 0.00941697 
v 0.0893233 0.0869025 0.010043 
v 0.0892618 0.0870907 0.0100412 
v 0.0898772 0.0859385 0.00968529 
v 0.0900809 0.0889786 0.00782086 
v 0.0901976 0.0889177 0.00767292 
v 0.0891311 0.0880209 0.00976697 
v 0.0894765 0.0865415 0.00999215 
v 0.0893951 0.0867187 0.0100266 
v 0.090675 0.0855221 0.00867389 
v 0.0905668 0.0855221 0.00883978 
v 0.0908737 0.0855837 0.00833758 
v 0.0907777 0.0855427 0.00850583 
v 0.0912779 0.0863729 0.00731457 
v 0.0912879 0.0867187 0.00712284 
v 0.0912892 0.0865415 0.00721121 
v 0.0892501 0.0886238 0.00927657 
v 0.0893092 0.0887393 0.00912694 
v 0.0912088 0.0872812 0.00695702 
v 0.0912474 0.0870907 0.006995 
v 0.0910252 0.0878437 0.00695161 
v 0.091097 0.0876599 0.0069352 
v 0.0908538 0.0881894 0.00703809 
v 0.0909438 0.0880209 0.00698604 
v 0.0912739 0.0869025 0.00705048 
v 0.0911585 0.0874716 0.00693701 
v 0.0905431 0.0886238 0.00729289 
v 0.0906523 0.0884926 0.00719242 
v 0.0907562 0.0883473 0.00710715 
v 0.0903145 0.0888376 0.00753456 
v 0.0904301 0.0887393 0.00740738 
v 0.0555519 0.0855837 0.00915733 
v 0.0557854 0.0857247 0.00944363 
v 0.0556686 0.0856446 0.00930526 
v 0.0560141 0.0859385 0.00968529 
v 0.055901 0.0858231 0.0095708 
v 0.0548661 0.0878437 0.00695161 
v 0.0549475 0.0880209 0.00698604 
v 0.0547942 0.0876599 0.0069352 
v 0.0554367 0.0855427 0.00900156 
v 0.0562272 0.0862151 0.00987103 
v 0.0561232 0.0860697 0.00978576 
v 0.0564147 0.0865415 0.00999215 
v 0.0563247 0.0863729 0.00994009 
v 0.056568 0.0869025 0.010043 
v 0.0564961 0.0867187 0.0100266 
v 0.0558103 0.0889786 0.00782086 
v 0.0559255 0.0890196 0.00797663 
v 0.0546825 0.0872812 0.00695702 
v 0.0547328 0.0874716 0.00693701 
v 0.0546034 0.0867187 0.00712284 
v 0.0546174 0.0869025 0.00705048 
v 0.0547211 0.0859385 0.00770162 
v 0.0546732 0.0860697 0.00756121 
v 0.0552163 0.0855221 0.00867389 
v 0.0551136 0.0855427 0.00850583 
v 0.0553244 0.0855221 0.00883978 
v 0.0567251 0.0883473 0.00954649 
v 0.0567489 0.0881894 0.00966362 
v 0.0566411 0.0886238 0.00927657 
v 0.056689 0.0884926 0.00941697 
v 0.0565123 0.0888376 0.00896982 
v 0.056582 0.0887393 0.00912694 
v 0.0563446 0.0889786 0.0086406 
v 0.0564329 0.0889177 0.00880708 
v 0.0561459 0.0890402 0.00830429 
v 0.0562486 0.0890196 0.00847235 
v 0.0560378 0.0890402 0.0081384 
v 0.0546438 0.0870907 0.006995 
v 0.0546133 0.0863729 0.00731457 
v 0.054602 0.0865415 0.00721121 
v 0.0546371 0.0862151 0.00743169 
v 0.0548499 0.0857247 0.00800836 
v 0.0547802 0.0858231 0.00785125 
v 0.0550176 0.0855837 0.00833758 
v 0.0549293 0.0856446 0.00817111 
v 0.0555768 0.0888376 0.00753456 
v 0.0556936 0.0889177 0.00767292 
v 0.0550375 0.0881894 0.00703809 
v 0.055135 0.0883473 0.00710715 
v 0.055239 0.0884926 0.00719242 
v 0.0566797 0.0872812 0.0100212 
v 0.0566294 0.0870907 0.0100412 
v 0.0567588 0.0878437 0.00985534 
v 0.0567448 0.0876599 0.0099277 
v 0.0553481 0.0886238 0.00729289 
v 0.0554612 0.0887393 0.00740738 
v 0.0567184 0.0874716 0.00998319 
v 0.0567602 0.0880209 0.00976697 
v 0.076451 0.0828282 0.00169077 
v 0.0764007 0.0830187 0.00167076 
v 0.0765124 0.08264 0.00169258 
v 0.0765843 0.0824562 0.00167618 
v 0.0766657 0.082279 0.00164174 
v 0.0767557 0.0821105 0.00158969 
v 0.0768532 0.0819526 0.00152063 
v 0.0769572 0.0818072 0.00143536 
v 0.0770663 0.081676 0.00133489 
v 0.0771794 0.0815606 0.0012204 
v 0.077295 0.0814623 0.00109322 
v 0.0774118 0.0813822 0.000954859 
v 0.0775285 0.0813213 0.000806924 
v 0.0776437 0.0812803 0.000651154 
v 0.077756 0.0812596 0.000489377 
v 0.0778641 0.0812596 0.000323488 
v 0.0779668 0.0812803 0.000155432 
v 0.0767358 0.0847161 0.000290199 
v 0.0768318 0.0847571 0.000121947 
v 0.0766475 0.0846552 0.000456674 
v 0.0765681 0.0845751 0.000619422 
v 0.0764984 0.0844768 0.000776533 
v 0.0764393 0.0843614 0.000926166 
v 0.0763914 0.0842302 0.00106657 
v 0.0763553 0.0840848 0.00119609 
v 0.0763315 0.0839269 0.00131321 
v 0.0763202 0.0837584 0.00141657 
v 0.0763216 0.0835812 0.00150494 
v 0.0763356 0.0833974 0.0015773 
v 0.076362 0.0832092 0.00163279 
v 0.0770053 0.0847983 -3.12668e-17 
v 0.0769056 0.0847741 -6.68932e-18 
v 0.0773678 0.084886 -4.66914e-18 
v 0.0777283 0.0849479 -4.6614e-18 
v 0.0780825 0.0849864 -4.65659e-18 
v 0.0784261 0.085001 -4.65477e-18 
v 0.0787553 0.0849916 -4.65595e-18 
v 0.079066 0.0849582 -4.66012e-18 
v 0.0793547 0.0849012 -4.66724e-18 
v 0.0796179 0.0848213 -4.67722e-18 
v 0.0797391 0.084773 -4.68325e-18 
v 0.0798527 0.0847194 -4.68994e-18 
v 0.0799585 0.0846606 -4.69729e-18 
v 0.0800562 0.0845968 -4.70526e-18 
v 0.0801455 0.0845281 -4.71383e-18 
v 0.0802261 0.0844548 -4.72299e-18 
v 0.0802977 0.0843771 -4.7327e-18 
v 0.0803603 0.0842952 -4.74293e-18 
v 0.0804135 0.0842093 -4.75365e-18 
v 0.0804573 0.0841198 -4.76484e-18 
v 0.0804915 0.0840268 -4.77645e-18 
v 0.080516 0.0839306 -4.78846e-18 
v 0.0805307 0.0838316 -4.80083e-18 
v 0.0805356 0.0837299 -4.81353e-18 
v 0.0805307 0.083626 -4.82651e-18 
v 0.080516 0.0835201 -4.83974e-18 
v 0.0804915 0.0834125 -4.85318e-18 
v 0.0804573 0.0833035 -4.86679e-18 
v 0.0804135 0.0831935 -4.88053e-18 
v 0.0803603 0.0830828 -4.89436e-18 
v 0.0802977 0.0829717 -4.90823e-18 
v 0.0802261 0.0828605 -4.92212e-18 
v 0.0800562 0.0826392 -4.94976e-18 
v 0.0798527 0.0824215 -4.97695e-18 
v 0.0796179 0.0822101 -5.00336e-18 
v 0.0793547 0.0820072 -5.0287e-18 
v 0.079066 0.0818154 -5.05266e-18 
v 0.0787553 0.0816369 -5.07495e-18 
v 0.0784261 0.0814737 -5.09533e-18 
v 0.078082 0.0813285 -2.4249e-17 
v 0.0780558 0.0813174 -7.09493e-18 
v 0.0777459 0.0815489 -8.55339e-18 
v 0.0774164 0.0817952 -5.16775e-18 
v 0.0771008 0.0820311 -5.02571e-18 
v 0.076995 0.0821247 -2.83638e-18 
v 0.0768927 0.0822153 -3.719e-18 
v 0.0767959 0.0823009 -4.99201e-18 
v 0.0767412 0.0823597 -3.80477e-18 
v 0.076689 0.0824158 -4.97767e-18 
v 0.0766521 0.0824633 -4.22504e-18 
v 0.0766167 0.0825089 -4.96604e-18 
v 0.0765905 0.0825506 -3.41093e-18 
v 0.0765652 0.0825909 -4.9558e-18 
v 0.0765461 0.0826299 -2.28385e-18 
v 0.0765274 0.0826681 -4.94615e-18 
v 0.0765125 0.0827064 -4.94137e-18 
v 0.0764999 0.0827452 -4.93652e-18 
v 0.0764893 0.0827851 -4.93154e-18 
v 0.0764806 0.0828266 -4.92636e-18 
v 0.0764751 0.0828713 -1.67855e-18 
v 0.0764694 0.0829174 -4.91501e-18 
v 0.0764683 0.0829703 -7.80195e-18 
v 0.0764672 0.0830253 -4.90154e-18 
v 0.0764721 0.0830926 -6.24855e-18 
v 0.0764772 0.0831632 -4.88432e-18 
v 0.0764957 0.0832673 1.96441e-17 
v 0.0765153 0.0833777 4.50959e-17 
v 0.0765356 0.0834919 -4.84326e-18 
v 0.0766294 0.0838171 5.15766e-17 
v 0.0767287 0.0841609 3.05632e-17 
v 0.076831 0.0845154 8.90172e-18 
v 0.0662733 0.0848213 -3.33934e-17 
v 0.0661522 0.084773 -3.01408e-17 
v 0.0660385 0.0847194 -3.01408e-17 
v 0.0674651 0.085001 -3.92481e-17 
v 0.0659327 0.0846606 -2.25514e-17 
v 0.067136 0.0849916 -3.61039e-17 
v 0.0674651 0.0814737 -1.74014e-17 
v 0.0678092 0.0813285 -2.36212e-17 
v 0.067136 0.0816369 -1.38236e-17 
v 0.065835 0.0845968 -2.4503e-17 
v 0.0654777 0.0831935 5.20417e-18 
v 0.065531 0.0830828 6.07153e-18 
v 0.0657458 0.0845281 -1.99493e-17 
v 0.0668253 0.0849582 -3.51282e-17 
v 0.0668253 0.0818154 -6.17995e-18 
v 0.0655935 0.0829717 6.72205e-18 
v 0.0653998 0.0834125 3.68629e-18 
v 0.0654339 0.0833035 5.20417e-18 
v 0.0665366 0.0849012 -3.29597e-17 
v 0.0665366 0.0820072 -5.96311e-18 
v 0.0656652 0.0844548 -1.69136e-17 
v 0.0687905 0.0820311 -2.24972e-18 
v 0.0688962 0.0821247 -3.08643e-18 
v 0.0681453 0.0815489 -9.17164e-18 
v 0.0684748 0.0817952 -5.63637e-18 
v 0.0662733 0.0822101 1.0842e-18 
v 0.0656652 0.0828605 4.98733e-18 
v 0.0653606 0.083626 -1.51788e-18 
v 0.0653753 0.0835201 2.1684e-18 
v 0.0655935 0.0843771 -1.64799e-17 
v 0.0693955 0.0832673 2.05757e-17 
v 0.0693759 0.0833777 4.56365e-17 
v 0.0694106 0.0828266 4.11997e-18 
v 0.0694162 0.0828713 -1.65106e-18 
v 0.0693914 0.0827452 1.63715e-17 
v 0.069402 0.0827851 -8.34836e-18 
v 0.0693638 0.0826681 -6.23416e-18 
v 0.0693787 0.0827064 2.1684e-19 
v 0.0693261 0.0825909 -5.58364e-18 
v 0.0693451 0.0826299 -5.91214e-18 
v 0.0692022 0.0824158 -3.08998e-18 
v 0.0692391 0.0824633 -4.2804e-18 
v 0.0690953 0.0823009 -4.66207e-18 
v 0.06915 0.0823597 -3.85772e-18 
v 0.0689986 0.0822153 -3.89626e-18 
v 0.0678355 0.0813174 -7.09493e-18 
v 0.0660385 0.0824215 6.07153e-18 
v 0.0653606 0.0838316 -6.50521e-19 
v 0.0653556 0.0837299 -1.51788e-18 
v 0.065531 0.0842952 -1.30104e-17 
v 0.069414 0.0831632 -3.08998e-18 
v 0.0694241 0.0830253 -7.86047e-18 
v 0.0694219 0.0829174 -7.58942e-18 
v 0.0694229 0.0829703 -7.72225e-18 
v 0.065835 0.0826392 2.81893e-18 
v 0.0654777 0.0842093 -1.12757e-17 
v 0.0654339 0.0841198 -6.28837e-18 
v 0.0685234 0.084886 -3.60497e-17 
v 0.0681629 0.0849479 -3.69713e-17 
v 0.0691626 0.0841609 3.27211e-17 
v 0.0690603 0.0845154 1.21311e-17 
v 0.0694192 0.0830926 -5.52972e-18 
v 0.0692745 0.0825089 -5.42101e-18 
v 0.0693007 0.0825506 -5.50369e-18 
v 0.0653998 0.0840268 -5.20417e-18 
v 0.0653753 0.0839306 1.30104e-18 
v 0.0678087 0.0849864 -4.23923e-17 
v 0.0689856 0.0847741 -6.68932e-18 
v 0.0688859 0.0847983 -3.31162e-17 
v 0.0692618 0.0838171 5.26951e-17 
v 0.0693557 0.0834919 7.15844e-17 
v 0.0695292 0.0832092 0.00163279 
v 0.0694906 0.0830187 0.00167076 
v 0.0695557 0.0833974 0.0015773 
v 0.0695697 0.0835812 0.00150494 
v 0.069571 0.0837584 0.00141657 
v 0.0695597 0.0839269 0.00131321 
v 0.0695359 0.0840848 0.00119609 
v 0.0694998 0.0842302 0.00106657 
v 0.069452 0.0843614 0.000926166 
v 0.0693929 0.0844768 0.000776533 
v 0.0693232 0.0845751 0.000619422 
v 0.0692437 0.0846552 0.000456674 
v 0.0691555 0.0847161 0.000290199 
v 0.0690595 0.0847571 0.000121947 
v 0.0680271 0.0812596 0.000323488 
v 0.0679244 0.0812803 0.000155432 
v 0.0681353 0.0812596 0.000489377 
v 0.0682476 0.0812803 0.000651154 
v 0.0683627 0.0813213 0.000806924 
v 0.0684794 0.0813822 0.000954859 
v 0.0685963 0.0814623 0.00109322 
v 0.0687119 0.0815606 0.0012204 
v 0.0688249 0.081676 0.00133489 
v 0.0689341 0.0818072 0.00143536 
v 0.069038 0.0819526 0.00152063 
v 0.0691356 0.0821105 0.00158969 
v 0.0692256 0.082279 0.00164174 
v 0.069307 0.0824562 0.00167618 
v 0.0693788 0.08264 0.00169258 
v 0.0694403 0.0828282 0.00169077 
vn 0 0 1 
vn 0 0.108119 0.994138 
vn 0 0.21497 0.976621 
vn 0 0.319302 0.947653 
vn 0 0.419889 0.907575 
vn 0 0.515554 0.856857 
vn 0 0.605174 0.796093 
vn 0 0.687699 0.725995 
vn 0 0.762162 0.647386 
vn 0 0.827689 0.561187 
vn 0 0.883512 0.468408 
vn 0 0.928977 0.370138 
vn 0 0.96355 0.267528 
vn 0 0.986827 0.161782 
vn 0 0.998533 0.0541389 
vn 0 0.998533 -0.0541389 
vn 0 0.986827 -0.161782 
vn 0 0.96355 -0.267528 
vn 0 0.928977 -0.370138 
vn 0 0.883512 -0.468408 
vn 0 0.827689 -0.561187 
vn 0 0.762162 -0.647386 
vn 0 0.687699 -0.725995 
vn 0 0.605174 -0.796093 
vn 0 0.515554 -0.856857 
vn 0 0.419889 -0.907575 
vn 0 0.319302 -0.947653 
vn 0 0.21497 -0.976621 
vn 0 0.108119 -0.994138 
vn 0 1.22465e-16 -1 
vn 0 -0.108119 -0.994138 
vn 0 -0.21497 -0.976621 
vn 0 -0.319302 -0.947653 
vn 0 -0.419889 -0.907575 
vn 0 -0.515554 -0.856857 
vn 0 -0.605174 -0.796093 
vn 0 -0.687699 -0.725995 
vn 0 -0.762162 -0.647386 
vn 0 -0.827689 -0.561187 
vn 0 -0.883512 -0.468408 
vn 0 -0.928977 -0.370138 
vn 0 -0.96355 -0.267528 
vn 0 -0.986827 -0.161782 
vn 0 -0.998533 -0.0541389 
vn 0 -0.998533 0.0541389 
vn 0 -0.986827 0.161782 
vn 0 -0.96355 0.267528 
vn 0 -0.928977 0.370138 
vn 0 -0.883512 0.468408 
vn 0 -0.827689 0.561187 
vn 0 -0.762162 0.647386 
vn 0 -0.687699 0.725995 
vn 0 -0.605174 0.796093 
vn 0 -0.515554 0.856857 
vn 0 -0.419889 0.907575 
vn 0 -0.319302 0.947653 
vn 0 -0.21497 0.976621 
vn 0 -0.108119 0.994138 
vn -1 0 0 
vn 1 0 0 
vn 0 -0.454645 -0.890673 
vn 0 -0.32835 0.944556 
vn 0 -0.226436 0.974026 
vn 0 -0.426569 0.904455 
vn 0 -0.32835 0.944556 
vn 0 -0.519986 0.854175 
vn 0 -0.426569 0.904455 
vn 0 -0.607551 0.79428 
vn 0 -0.519986 0.854175 
vn 0 -0.688279 0.725446 
vn 0 -0.607551 0.79428 
vn 0 -0.761259 0.648448 
vn 0 -0.688279 0.725446 
vn 0 -0.825672 0.564151 
vn 0 -0.761259 0.648448 
vn 0 -0.880791 0.473504 
vn 0 -0.825672 0.564151 
vn 0 -0.925998 0.377529 
vn 0 -0.880791 0.473504 
vn 0 -0.960782 0.277304 
vn 0 -0.925998 0.377529 
vn 0 -0.984753 0.173958 
vn 0 -0.960782 0.277304 
vn 0 -0.997641 0.0686543 
vn 0 -0.984753 0.173958 
vn 0 -0.9993 -0.0374221 
vn 0 -0.997641 0.0686543 
vn 0 -0.989712 -0.143077 
vn 0 -0.9993 -0.0374221 
vn 0 -0.968984 -0.247122 
vn 0 -0.989712 -0.143077 
vn 0 -0.937351 -0.348386 
vn 0 -0.968984 -0.247122 
vn 0 -0.895168 -0.445728 
vn 0 -0.937351 -0.348386 
vn 0 -0.84291 -0.538054 
vn 0 -0.895168 -0.445728 
vn 0 -0.781165 -0.624324 
vn 0 -0.84291 -0.538054 
vn 0 -0.710628 -0.703568 
vn 0 -0.781165 -0.624324 
vn 0 -0.632093 -0.774892 
vn 0 -0.710628 -0.703568 
vn 0 -0.546444 -0.837496 
vn 0 -0.632093 -0.774892 
vn 0 -0.454645 -0.890673 
vn 0 -0.546444 -0.837496 
vn 0 -0.890673 0.454645 
vn 0 0.454645 0.890673 
vn 0.741087 0.305252 0.598005 
vn 0.806982 0.268502 0.52601 
vn 0.667132 0.338683 0.663497 
vn 0.741087 0.305252 0.598005 
vn 0.585921 0.36843 0.721773 
vn 0.667132 0.338683 0.663497 
vn 0.498338 0.394169 0.772198 
vn 0.585921 0.36843 0.721773 
vn 0.405334 0.415622 0.814225 
vn 0.498338 0.394169 0.772198 
vn 0.452451 0.405447 0.794292 
vn 0.307922 0.432554 0.847396 
vn 0.405334 0.415622 0.814225 
vn 0.357114 0.424666 0.831943 
vn 0.207161 0.444782 0.871351 
vn 0.307922 0.432554 0.847396 
vn 0.257892 0.439266 0.860545 
vn 0.104147 0.452172 0.885829 
vn 0.207161 0.444782 0.871351 
vn 0.155866 0.449088 0.879787 
vn 4.22923e-15 0.454645 0.890673 
vn 0.0521444 0.454026 0.889461 
vn 0.0260811 0.45449 0.89037 
vn 0.0781722 0.453253 0.887947 
vn 0.104147 0.452172 0.885829 
vn 5.20241e-15 0.454645 0.890673 
vn -0.0781722 0.453253 0.887947 
vn -0.104147 0.452172 0.885829 
vn -2.90946e-15 0.454645 0.890673 
vn -0.0260811 0.45449 0.89037 
vn -0.0521444 0.454026 0.889461 
vn -0.104147 0.452172 0.885829 
vn -0.155866 0.449088 0.879787 
vn -0.207161 0.444782 0.871351 
vn -0.257892 0.439266 0.860545 
vn -0.307922 0.432554 0.847396 
vn -0.357114 0.424666 0.831943 
vn -0.405334 0.415622 0.814225 
vn -0.452451 0.405447 0.794292 
vn -0.498338 0.394169 0.772198 
vn -0.585921 0.36843 0.721773 
vn -0.667132 0.338683 0.663497 
vn -0.741087 0.305252 0.598005 
vn -0.806982 0.268502 0.52601 
vn 0.806982 0.268502 0.52601 
vn 0.518541 0.104149 -0.848686 
vn 0.546061 4.29815e-16 -0.837745 
vn 0.48494 0.207077 -0.849678 
vn 0.518541 0.104149 -0.848686 
vn 0.445654 0.307576 -0.840707 
vn 0.48494 0.207077 -0.849678 
vn 0.401144 0.40447 -0.82188 
vn 0.445654 0.307576 -0.840707 
vn 0.35193 0.496622 -0.793418 
vn 0.401144 0.40447 -0.82188 
vn 0.29859 0.582952 -0.755653 
vn 0.35193 0.496622 -0.793418 
vn 0.24175 0.662447 -0.709029 
vn 0.29859 0.582952 -0.755653 
vn 0.182075 0.734175 -0.654092 
vn 0.24175 0.662447 -0.709029 
vn 0.120265 0.797296 -0.591486 
vn 0.182075 0.734175 -0.654092 
vn 0.0570459 0.851069 -0.521946 
vn 0.120265 0.797296 -0.591486 
vn -0.00684239 0.894864 -0.446287 
vn 0.0570459 0.851069 -0.521946 
vn -0.0706504 0.928168 -0.365395 
vn -0.00684239 0.894864 -0.446287 
vn -0.13363 0.950589 -0.280219 
vn -0.0706504 0.928168 -0.365395 
vn -0.195043 0.961866 -0.191758 
vn -0.13363 0.950589 -0.280219 
vn -0.25417 0.961866 -0.101049 
vn -0.195043 0.961866 -0.191758 
vn -0.310316 0.950589 -0.00915507 
vn -0.25417 0.961866 -0.101049 
vn 0.362824 -0.928168 -0.0828462 
vn 0.310316 -0.950589 0.00915507 
vn 0.411079 -0.894864 -0.173876 
vn 0.362824 -0.928168 -0.0828462 
vn 0.454514 -0.851069 -0.262868 
vn 0.411079 -0.894864 -0.173876 
vn 0.49262 -0.797296 -0.348777 
vn 0.454514 -0.851069 -0.262868 
vn 0.524951 -0.734175 -0.430598 
vn 0.49262 -0.797296 -0.348777 
vn 0.551127 -0.662447 -0.50737 
vn 0.524951 -0.734175 -0.430598 
vn 0.570841 -0.582952 -0.578193 
vn 0.551127 -0.662447 -0.50737 
vn 0.583863 -0.496622 -0.642238 
vn 0.570841 -0.582952 -0.578193 
vn 0.59004 -0.40447 -0.698753 
vn 0.583863 -0.496622 -0.642238 
vn 0.589299 -0.307576 -0.747076 
vn 0.59004 -0.40447 -0.698753 
vn 0.581649 -0.207077 -0.78664 
vn 0.589299 -0.307576 -0.747076 
vn 0.56718 -0.104149 -0.816982 
vn 0.581649 -0.207077 -0.78664 
vn 0.254195 -0.961864 0.101008 
vn 0.269944 -0.959885 0.0758363 
vn 0.25417 -0.961866 0.101049 
vn 0.195043 -0.961866 0.191758 
vn 0.13363 -0.950589 0.280219 
vn 0.0706504 -0.928168 0.365395 
vn 0.00684239 -0.894864 0.446287 
vn -0.0570459 -0.851069 0.521946 
vn -0.120265 -0.797296 0.591486 
vn -0.182075 -0.734175 0.654092 
vn -0.24175 -0.662447 0.709029 
vn -0.270567 -0.623614 0.733416 
vn -0.29859 -0.582952 0.755653 
vn -0.325738 -0.54058 0.775673 
vn -0.35193 -0.496622 0.793418 
vn -0.37709 -0.451208 0.808835 
vn -0.401144 -0.40447 0.82188 
vn -0.424021 -0.356546 0.832515 
vn -0.445654 -0.307576 0.840707 
vn -0.465981 -0.257704 0.846434 
vn -0.48494 -0.207077 0.849678 
vn -0.502477 -0.155841 0.850429 
vn -0.518541 -0.104149 0.848686 
vn -0.546061 2.28247e-15 0.837745 
vn -0.533083 -0.0521509 0.844454 
vn -0.56718 0.104149 0.816982 
vn -0.546061 -5.21707e-15 0.837745 
vn -0.557438 0.0521509 0.828579 
vn -0.581649 0.207077 0.78664 
vn -0.56718 0.104149 0.816982 
vn -0.575259 0.155841 0.802989 
vn -0.589299 0.307576 0.747076 
vn -0.581649 0.207077 0.78664 
vn -0.586334 0.257704 0.767985 
vn -0.59004 0.40447 0.698753 
vn -0.589299 0.307576 0.747076 
vn -0.590536 0.356546 0.723977 
vn -0.583863 0.496622 0.642238 
vn -0.59004 0.40447 0.698753 
vn -0.570841 0.582952 0.578193 
vn -0.583863 0.496622 0.642238 
vn -0.551127 0.662447 0.50737 
vn -0.570841 0.582952 0.578193 
vn -0.524951 0.734175 0.430598 
vn -0.551127 0.662447 0.50737 
vn -0.49262 0.797296 0.348777 
vn -0.524951 0.734175 0.430598 
vn -0.454514 0.851069 0.262868 
vn -0.49262 0.797296 0.348777 
vn -0.411079 0.894864 0.173876 
vn -0.454514 0.851069 0.262868 
vn -0.362824 0.928168 0.0828462 
vn -0.411079 0.894864 0.173876 
vn -0.310316 0.950589 -0.00915507 
vn -0.362816 0.928172 0.0828318 
vn -0.358954 0.930269 0.0758363 
vn 0.560812 0.725549 0.398834 
vn 0.531894 0.719741 0.446163 
vn 0.521186 0.715946 0.464528 
vn 0.591264 0.725549 0.352115 
vn 0.546332 0.723407 0.422142 
vn 0.622894 0.719741 0.306555 
vn 0.591264 0.725549 0.352115 
vn 0.655331 0.708193 0.262686 
vn 0.615822 0.721522 0.316496 
vn 0.688195 0.69104 0.221024 
vn 0.647782 0.711366 0.272648 
vn 0.7211 0.668484 0.182056 
vn 0.688195 0.69104 0.221024 
vn 0.75366 0.640789 0.14624 
vn 0.718998 0.670086 0.184462 
vn 0.785494 0.608279 0.113996 
vn 0.75366 0.640789 0.14624 
vn 0.816229 0.571336 0.0857014 
vn 0.784251 0.609655 0.115202 
vn 0.845504 0.530393 0.0616882 
vn 0.816229 0.571336 0.0857014 
vn 0.872976 0.485931 0.0422379 
vn 0.844854 0.53137 0.0621868 
vn 0.898323 0.438469 0.0275785 
vn 0.872976 0.485931 0.0422379 
vn 0.921248 0.388565 0.0178819 
vn 0.898058 0.439003 0.0277124 
vn 0.941482 0.336803 0.0132618 
vn 0.921248 0.388565 0.0178819 
vn 0.958787 0.283792 0.0137724 
vn 0.972961 0.230151 0.0194076 
vn 0.983838 0.176511 0.0301014 
vn 0.991391 0.122574 0.0460469 
vn 0.991291 0.123499 0.0457284 
vn 0.995231 0.0717376 0.0661055 
vn 0.995565 0.0202653 0.0918662 
vn 0.995612 0.0218335 0.0909937 
vn 0.992431 -0.0256282 0.120101 
vn 0.98527 -0.0723601 0.154941 
vn 0.985724 -0.0700911 0.153087 
vn 0.97557 -0.111034 0.189564 
vn 0.959162 -0.154509 0.236927 
vn 0.962088 -0.147977 0.229104 
vn 0.941976 -0.186059 0.279399 
vn 0.945437 -0.180486 0.271245 
vn 0.925811 -0.208182 0.315491 
vn 0.886935 -0.242912 0.392861 
vn 0.90344 -0.230738 0.361325 
vn 0.859657 -0.256652 0.441723 
vn 0.878587 -0.24789 0.408209 
vn 0.840809 -0.262315 0.473531 
vn 0.830751 -0.264226 0.489937 
vn 0.851543 -0.259439 0.455593 
vn 0.506844 0.709275 0.489937 
vn 0 1.249e-16 -1 
vn -0.56718 -0.104149 -0.816982 
vn -0.546061 -2.96424e-17 -0.837745 
vn -0.581649 -0.207077 -0.78664 
vn -0.56718 -0.104149 -0.816982 
vn -0.589299 -0.307576 -0.747076 
vn -0.581649 -0.207077 -0.78664 
vn -0.59004 -0.40447 -0.698753 
vn -0.589299 -0.307576 -0.747076 
vn -0.583863 -0.496622 -0.642238 
vn -0.59004 -0.40447 -0.698753 
vn -0.570841 -0.582952 -0.578193 
vn -0.583863 -0.496622 -0.642238 
vn -0.551127 -0.662447 -0.50737 
vn -0.570841 -0.582952 -0.578193 
vn -0.524951 -0.734175 -0.430598 
vn -0.551127 -0.662447 -0.50737 
vn -0.49262 -0.797296 -0.348777 
vn -0.524951 -0.734175 -0.430598 
vn -0.454514 -0.851069 -0.262868 
vn -0.49262 -0.797296 -0.348777 
vn -0.411079 -0.894864 -0.173876 
vn -0.454514 -0.851069 -0.262868 
vn -0.362824 -0.928168 -0.0828462 
vn -0.411079 -0.894864 -0.173876 
vn -0.310316 -0.950589 0.00915507 
vn -0.362824 -0.928168 -0.0828462 
vn 0.25417 0.961866 -0.101049 
vn 0.310316 0.950589 -0.00915507 
vn 0.195043 0.961866 -0.191758 
vn 0.25417 0.961866 -0.101049 
vn 0.13363 0.950589 -0.280219 
vn 0.195043 0.961866 -0.191758 
vn 0.0706504 0.928168 -0.365395 
vn 0.13363 0.950589 -0.280219 
vn 0.00684239 0.894864 -0.446287 
vn 0.0706504 0.928168 -0.365395 
vn -0.0570459 0.851069 -0.521946 
vn 0.00684239 0.894864 -0.446287 
vn -0.120265 0.797296 -0.591486 
vn -0.0570459 0.851069 -0.521946 
vn -0.182075 0.734175 -0.654092 
vn -0.120265 0.797296 -0.591486 
vn -0.24175 0.662447 -0.709029 
vn -0.182075 0.734175 -0.654092 
vn -0.29859 0.582952 -0.755653 
vn -0.24175 0.662447 -0.709029 
vn -0.35193 0.496622 -0.793418 
vn -0.29859 0.582952 -0.755653 
vn -0.401144 0.40447 -0.82188 
vn -0.35193 0.496622 -0.793418 
vn -0.445654 0.307576 -0.840707 
vn -0.401144 0.40447 -0.82188 
vn -0.48494 0.207077 -0.849678 
vn -0.445654 0.307576 -0.840707 
vn -0.518541 0.104149 -0.848686 
vn -0.48494 0.207077 -0.849678 
vn 0.362816 0.928172 0.0828318 
vn 0.358954 0.930269 0.0758363 
vn 0.362824 0.928168 0.0828462 
vn 0.411079 0.894864 0.173876 
vn 0.454514 0.851069 0.262868 
vn 0.49262 0.797296 0.348777 
vn 0.524951 0.734175 0.430598 
vn 0.551127 0.662447 0.50737 
vn 0.570841 0.582952 0.578193 
vn 0.583863 0.496622 0.642238 
vn 0.59004 0.40447 0.698753 
vn 0.590536 0.356546 0.723977 
vn 0.589299 0.307576 0.747076 
vn 0.586334 0.257704 0.767985 
vn 0.581649 0.207077 0.78664 
vn 0.575259 0.155841 0.802989 
vn 0.56718 0.104149 0.816982 
vn 0.557438 0.0521509 0.828579 
vn 0.546061 -5.21707e-15 0.837745 
vn 0.533083 -0.0521509 0.844454 
vn 0.518541 -0.104149 0.848686 
vn 0.48494 -0.207077 0.849678 
vn 0.502477 -0.155841 0.850429 
vn 0.445654 -0.307576 0.840707 
vn 0.48494 -0.207077 0.849678 
vn 0.465981 -0.257704 0.846434 
vn 0.401144 -0.40447 0.82188 
vn 0.445654 -0.307576 0.840707 
vn 0.424021 -0.356546 0.832515 
vn 0.35193 -0.496622 0.793418 
vn 0.401144 -0.40447 0.82188 
vn 0.37709 -0.451208 0.808835 
vn 0.29859 -0.582952 0.755653 
vn 0.35193 -0.496622 0.793418 
vn 0.325738 -0.54058 0.775673 
vn 0.24175 -0.662447 0.709029 
vn 0.29859 -0.582952 0.755653 
vn 0.270567 -0.623614 0.733416 
vn 0.182075 -0.734175 0.654092 
vn 0.24175 -0.662447 0.709029 
vn 0.120265 -0.797296 0.591486 
vn 0.182075 -0.734175 0.654092 
vn 0.0570459 -0.851069 0.521946 
vn 0.120265 -0.797296 0.591486 
vn -0.00684239 -0.894864 0.446287 
vn 0.0570459 -0.851069 0.521946 
vn -0.0706504 -0.928168 0.365395 
vn -0.00684239 -0.894864 0.446287 
vn -0.13363 -0.950589 0.280219 
vn -0.0706504 -0.928168 0.365395 
vn -0.195043 -0.961866 0.191758 
vn -0.13363 -0.950589 0.280219 
vn -0.25417 -0.961866 0.101049 
vn -0.195043 -0.961866 0.191758 
vn -0.310316 -0.950589 0.00915507 
vn -0.254195 -0.961864 0.101008 
vn -0.269944 -0.959885 0.0758363 
vn -0.878587 -0.24789 0.408209 
vn -0.851543 -0.259439 0.455593 
vn -0.840809 -0.262315 0.473531 
vn -0.90344 -0.230738 0.361325 
vn -0.859657 -0.256652 0.441723 
vn -0.925811 -0.208182 0.315491 
vn -0.886935 -0.242912 0.392861 
vn -0.945437 -0.180486 0.271245 
vn -0.925811 -0.208182 0.315491 
vn -0.962088 -0.147977 0.229104 
vn -0.941976 -0.186059 0.279399 
vn -0.97557 -0.111034 0.189564 
vn -0.959162 -0.154509 0.236927 
vn -0.985724 -0.0700911 0.153087 
vn -0.97557 -0.111034 0.189564 
vn -0.992431 -0.0256282 0.120101 
vn -0.98527 -0.0723601 0.154941 
vn -0.995612 0.0218335 0.0909937 
vn -0.992431 -0.0256282 0.120101 
vn -0.995231 0.0717376 0.0661055 
vn -0.995565 0.0202653 0.0918662 
vn -0.991291 0.123499 0.0457284 
vn -0.995231 0.0717376 0.0661055 
vn -0.983838 0.176511 0.0301014 
vn -0.991391 0.122574 0.0460469 
vn -0.972961 0.230151 0.0194076 
vn -0.983838 0.176511 0.0301014 
vn -0.958787 0.283792 0.0137724 
vn -0.972961 0.230151 0.0194076 
vn -0.941482 0.336803 0.0132618 
vn -0.958787 0.283792 0.0137724 
vn -0.921248 0.388565 0.0178819 
vn -0.898058 0.439003 0.0277124 
vn -0.898323 0.438469 0.0275785 
vn -0.872976 0.485931 0.0422379 
vn -0.844854 0.53137 0.0621868 
vn -0.845504 0.530393 0.0616882 
vn -0.816229 0.571336 0.0857014 
vn -0.784251 0.609655 0.115202 
vn -0.785494 0.608279 0.113996 
vn -0.75366 0.640789 0.14624 
vn -0.718998 0.670086 0.184462 
vn -0.7211 0.668484 0.182056 
vn -0.688195 0.69104 0.221024 
vn -0.647782 0.711366 0.272648 
vn -0.655331 0.708193 0.262686 
vn -0.615822 0.721522 0.316496 
vn -0.622894 0.719741 0.306555 
vn -0.591264 0.725549 0.352115 
vn -0.546332 0.723407 0.422142 
vn -0.560812 0.725549 0.398834 
vn -0.521186 0.715946 0.464528 
vn -0.506844 0.709275 0.489937 
vn -0.531894 0.719741 0.446163 
vn -0.830751 -0.264226 0.489937 
usemtl 0.231373_0.380392_0.705882_0.000000_0.000000
o mesh0
f 1//1 2//1 3//2 
f 4//2 3//2 5//3 
f 6//3 5//3 7//4 
f 8//4 7//4 9//5 
f 10//5 9//5 11//6 
f 12//6 11//6 13//7 
f 14//7 13//7 15//8 
f 16//8 15//8 17//9 
f 18//9 17//9 19//10 
f 20//10 19//10 21//11 
f 22//11 21//11 23//12 
f 24//12 23//12 25//13 
f 26//13 25//13 27//14 
f 28//14 27//14 29//15 
f 30//15 29//15 31//16 
f 32//16 31//16 33//17 
f 34//17 33//17 35//18 
f 36//18 35//18 37//19 
f 38//19 37//19 39//20 
f 40//20 39//20 41//21 
f 42//21 41//21 43//22 
f 44//22 43//22 45//23 
f 46//23 45//23 47//24 
f 48//24 47//24 49//25 
f 50//25 49//25 51//26 
f 52//26 51//26 53//27 
f 54//27 53//27 55//28 
f 56//28 55//28 57//29 
f 58//29 57//29 59//30 
f 60//30 59//30 61//31 
f 62//31 61//31 63//32 
f 64//32 63//32 65//33 
f 66//33 65//33 67//34 
f 68//34 67//34 69//35 
f 70//35 69//35 71//36 
f 72//36 71//36 73//37 
f 74//37 73//37 75//38 
f 76//38 75//38 77//39 
f 78//39 77//39 79//40 
f 80//40 79//40 81//41 
f 82//41 81//41 83//42 
f 84//42 83//42 85//43 
f 86//43 85//43 87//44 
f 88//44 87//44 89//45 
f 90//45 89//45 91//46 
f 92//46 91//46 93//47 
f 94//47 93//47 95//48 
f 96//48 95//48 97//49 
f 98//49 97//49 99//50 
f 100//50 99//50 101//51 
f 102//51 101//51 103//52 
f 104//52 103//52 105//53 
f 106//53 105//53 107//54 
f 108//54 107//54 109//55 
f 110//55 109//55 111//56 
f 112//56 111//56 113//57 
f 114//57 113//57 115//58 
f 116//58 115//58 2//1 
f 2//1 1//1 116//58 
f 115//58 116//58 114//57 
f 113//57 114//57 112//56 
f 111//56 112//56 110//55 
f 109//55 110//55 108//54 
f 107//54 108//54 106//53 
f 105//53 106//53 104//52 
f 103//52 104//52 102//51 
f 101//51 102//51 100//50 
f 99//50 100//50 98//49 
f 97//49 98//49 96//48 
f 95//48 96//48 94//47 
f 93//47 94//47 92//46 
f 91//46 92//46 90//45 
f 89//45 90//45 88//44 
f 87//44 88//44 86//43 
f 85//43 86//43 84//42 
f 83//42 84//42 82//41 
f 81//41 82//41 80//40 
f 79//40 80//40 78//39 
f 77//39 78//39 76//38 
f 75//38 76//38 74//37 
f 73//37 74//37 72//36 
f 71//36 72//36 70//35 
f 69//35 70//35 68//34 
f 67//34 68//34 66//33 
f 65//33 66//33 64//32 
f 63//32 64//32 62//31 
f 61//31 62//31 60//30 
f 59//30 60//30 58//29 
f 57//29 58//29 56//28 
f 55//28 56//28 54//27 
f 53//27 54//27 52//26 
f 51//26 52//26 50//25 
f 49//25 50//25 48//24 
f 47//24 48//24 46//23 
f 45//23 46//23 44//22 
f 43//22 44//22 42//21 
f 41//21 42//21 40//20 
f 39//20 40//20 38//19 
f 37//19 38//19 36//18 
f 35//18 36//18 34//17 
f 33//17 34//17 32//16 
f 31//16 32//16 30//15 
f 29//15 30//15 28//14 
f 27//14 28//14 26//13 
f 25//13 26//13 24//12 
f 23//12 24//12 22//11 
f 21//11 22//11 20//10 
f 19//10 20//10 18//9 
f 17//9 18//9 16//8 
f 15//8 16//8 14//7 
f 13//7 14//7 12//6 
f 11//6 12//6 10//5 
f 9//5 10//5 8//4 
f 7//4 8//4 6//3 
f 5//3 6//3 4//2 
f 3//2 4//2 1//1 
o mesh1
f 117//59 61//59 59//59 
f 117//59 53//59 51//59 
f 59//59 57//59 117//59 
f 118//59 63//59 61//59 
f 117//59 55//59 53//59 
f 61//59 117//59 118//59 
f 118//59 69//59 67//59 
f 57//59 55//59 117//59 
f 67//59 65//59 118//59 
f 41//59 119//59 120//59 
f 117//59 49//59 47//59 
f 65//59 63//59 118//59 
f 41//59 121//59 119//59 
f 43//59 120//59 117//59 
f 51//59 49//59 117//59 
f 118//59 73//59 71//59 
f 35//59 122//59 123//59 
f 117//59 45//59 43//59 
f 71//59 69//59 118//59 
f 124//59 111//59 109//59 
f 33//59 31//59 125//59 
f 126//59 35//59 33//59 
f 35//59 127//59 122//59 
f 37//59 128//59 129//59 
f 47//59 45//59 117//59 
f 118//59 77//59 75//59 
f 124//59 113//59 111//59 
f 124//59 2//59 115//59 
f 124//59 130//59 7//59 
f 130//59 11//59 9//59 
f 27//59 25//59 131//59 
f 29//59 132//59 133//59 
f 29//59 27//59 134//59 
f 31//59 29//59 135//59 
f 125//59 136//59 33//59 
f 33//59 137//59 126//59 
f 35//59 138//59 127//59 
f 37//59 123//59 128//59 
f 39//59 139//59 121//59 
f 75//59 73//59 118//59 
f 124//59 95//59 93//59 
f 124//59 107//59 105//59 
f 115//59 113//59 124//59 
f 124//59 5//59 3//59 
f 9//59 7//59 130//59 
f 25//59 23//59 130//59 
f 131//59 140//59 27//59 
f 134//59 132//59 29//59 
f 135//59 141//59 31//59 
f 126//59 138//59 35//59 
f 129//59 39//59 37//59 
f 39//59 129//59 139//59 
f 118//59 79//59 77//59 
f 118//59 83//59 81//59 
f 118//59 87//59 85//59 
f 124//59 97//59 95//59 
f 124//59 103//59 101//59 
f 109//59 107//59 124//59 
f 7//59 5//59 124//59 
f 130//59 15//59 13//59 
f 130//59 142//59 25//59 
f 133//59 135//59 29//59 
f 136//59 137//59 33//59 
f 121//59 41//59 39//59 
f 81//59 79//59 118//59 
f 118//59 89//59 87//59 
f 118//59 93//59 91//59 
f 124//59 99//59 97//59 
f 105//59 103//59 124//59 
f 13//59 11//59 130//59 
f 130//59 19//59 17//59 
f 142//59 131//59 25//59 
f 141//59 125//59 31//59 
f 120//59 43//59 41//59 
f 91//59 89//59 118//59 
f 101//59 99//59 124//59 
f 17//59 15//59 130//59 
f 23//59 21//59 130//59 
f 123//59 37//59 35//59 
f 93//59 118//59 124//59 
f 21//59 19//59 130//59 
f 85//59 83//59 118//59 
f 140//59 134//59 27//59 
f 3//59 2//59 124//59 
o mesh2
f 143//60 116//60 1//60 
f 144//60 8//60 10//60 
f 143//60 6//60 8//60 
f 1//60 4//60 143//60 
f 8//60 144//60 143//60 
f 143//60 114//60 116//60 
f 143//60 108//60 110//60 
f 26//60 145//60 144//60 
f 4//60 6//60 143//60 
f 110//60 112//60 143//60 
f 26//60 146//60 145//60 
f 144//60 12//60 14//60 
f 112//60 114//60 143//60 
f 144//60 22//60 24//60 
f 144//60 16//60 18//60 
f 10//60 12//60 144//60 
f 147//60 50//60 52//60 
f 36//60 38//60 148//60 
f 144//60 20//60 22//60 
f 14//60 16//60 144//60 
f 149//60 64//60 66//60 
f 149//60 147//60 62//60 
f 147//60 56//60 58//60 
f 52//60 54//60 147//60 
f 42//60 44//60 150//60 
f 38//60 40//60 151//60 
f 148//60 152//60 36//60 
f 153//60 154//60 34//60 
f 34//60 155//60 156//60 
f 18//60 20//60 144//60 
f 143//60 104//60 106//60 
f 143//60 149//60 94//60 
f 66//60 68//60 149//60 
f 147//60 60//60 62//60 
f 54//60 56//60 147//60 
f 147//60 46//60 48//60 
f 44//60 46//60 147//60 
f 150//60 157//60 42//60 
f 40//60 42//60 158//60 
f 151//60 159//60 38//60 
f 152//60 160//60 36//60 
f 36//60 161//60 153//60 
f 34//60 154//60 155//60 
f 32//60 162//60 163//60 
f 30//60 164//60 165//60 
f 30//60 163//60 166//60 
f 28//60 167//60 146//60 
f 106//60 108//60 143//60 
f 143//60 100//60 102//60 
f 94//60 96//60 143//60 
f 149//60 84//60 86//60 
f 149//60 70//60 72//60 
f 62//60 64//60 149//60 
f 48//60 50//60 147//60 
f 157//60 158//60 42//60 
f 158//60 168//60 40//60 
f 160//60 161//60 36//60 
f 156//60 32//60 34//60 
f 32//60 156//60 162//60 
f 166//60 164//60 30//60 
f 28//60 165//60 167//60 
f 102//60 104//60 143//60 
f 96//60 98//60 143//60 
f 149//60 90//60 92//60 
f 86//60 88//60 149//60 
f 149//60 80//60 82//60 
f 149//60 74//60 76//60 
f 68//60 70//60 149//60 
f 147//60 150//60 44//60 
f 159//60 148//60 38//60 
f 163//60 30//60 32//60 
f 146//60 26//60 28//60 
f 98//60 100//60 143//60 
f 88//60 90//60 149//60 
f 149//60 78//60 80//60 
f 72//60 74//60 149//60 
f 168//60 151//60 40//60 
f 165//60 28//60 30//60 
f 92//60 94//60 149//60 
f 76//60 78//60 149//60 
f 34//60 36//60 153//60 
f 82//60 84//60 149//60 
f 144//60 24//60 26//60 
f 58//60 60//60 147//60 
o mesh3
f 130//61 124//61 143//61 
f 143//61 144//61 130//61 
o mesh4
f 150//62 147//63 117//63 
f 157//64 150//62 120//65 
f 158//66 157//64 119//67 
f 168//68 158//66 121//69 
f 151//70 168//68 139//71 
f 159//72 151//70 129//73 
f 148//74 159//72 128//75 
f 152//76 148//74 123//77 
f 160//78 152//76 122//79 
f 161//80 160//78 127//81 
f 153//82 161//80 138//83 
f 154//84 153//82 126//85 
f 155//86 154//84 137//87 
f 156//88 155//86 136//89 
f 162//90 156//88 125//91 
f 163//92 162//90 141//93 
f 166//94 163//92 135//95 
f 164//96 166//94 133//97 
f 165//98 164//96 132//99 
f 167//100 165//98 134//101 
f 146//102 167//100 140//103 
f 145//104 146//102 131//105 
f 144//106 145//104 142//107 
f 142//107 130//106 144//106 
f 131//105 142//107 145//104 
f 140//103 131//105 146//102 
f 134//101 140//103 167//100 
f 132//99 134//101 165//98 
f 133//97 132//99 164//96 
f 135//95 133//97 166//94 
f 141//93 135//95 163//92 
f 125//91 141//93 162//90 
f 136//89 125//91 156//88 
f 137//87 136//89 155//86 
f 126//85 137//87 154//84 
f 138//83 126//85 153//82 
f 127//81 138//83 161//80 
f 122//79 127//81 160//78 
f 123//77 122//79 152//76 
f 128//75 123//77 148//74 
f 129//73 128//75 159//72 
f 139//71 129//73 151//70 
f 121//69 139//71 168//68 
f 119//67 121//69 158//66 
f 120//65 119//67 157//64 
f 117//63 120//65 150//62 
o mesh5
f 169//108 170//108 124//108 
f 118//108 171//108 169//108 
f 118//108 172//108 173//108 
f 118//108 174//108 175//108 
f 118//108 176//108 177//108 
f 149//108 178//108 179//108 
f 173//108 171//108 118//108 
f 177//108 174//108 118//108 
f 149//108 180//108 178//108 
f 175//108 172//108 118//108 
f 149//108 181//108 180//108 
f 149//108 182//108 183//108 
f 149//108 184//108 185//108 
f 184//108 149//108 143//108 
f 118//108 186//108 176//108 
f 183//108 181//108 149//108 
f 143//108 187//108 184//108 
f 118//108 188//108 186//108 
f 187//108 143//108 124//108 
f 185//108 182//108 149//108 
f 124//108 170//108 187//108 
f 179//108 189//108 149//108 
f 189//108 190//108 149//108 
f 124//108 118//108 169//108 
o mesh6
f 187//109 170//109 191//109 
f 191//109 192//109 187//109 
o mesh7
f 176//110 186//111 193//111 
f 177//112 176//110 194//113 
f 174//114 177//112 195//115 
f 175//116 174//114 196//117 
f 172//118 175//116 197//119 
f 197//119 198//120 172//118 
f 173//121 172//118 199//122 
f 199//122 200//123 173//121 
f 171//124 173//121 201//125 
f 201//125 202//126 171//124 
f 169//127 171//124 203//128 
f 203//128 204//129 169//127 
f 170//130 205//131 206//132 
f 170//130 207//133 205//131 
f 170//130 169//127 208//134 
f 208//134 207//133 170//130 
f 206//132 191//135 170//130 
f 204//129 208//134 169//127 
f 202//126 203//128 171//124 
f 200//123 201//125 173//121 
f 198//120 199//122 172//118 
f 196//117 197//119 175//116 
f 195//115 196//117 174//114 
f 194//113 195//115 177//112 
f 193//111 194//113 176//110 
o mesh8
f 187//135 209//136 210//137 
f 187//135 192//138 211//139 
f 211//139 212//140 187//135 
f 212//140 209//136 187//135 
f 184//141 213//142 214//143 
f 184//141 210//137 213//142 
f 185//143 215//144 216//145 
f 185//143 214//143 215//144 
f 182//145 217//146 218//147 
f 182//145 216//145 217//146 
f 183//147 219//148 220//149 
f 183//147 218//147 219//148 
f 181//149 220//149 221//150 
f 180//150 221//150 222//151 
f 178//151 222//151 223//152 
f 179//152 223//152 224//153 
f 224//153 189//153 179//152 
f 223//152 179//152 178//151 
f 222//151 178//151 180//150 
f 221//150 180//150 181//149 
f 220//149 181//149 183//147 
f 218//147 183//147 182//145 
f 216//145 182//145 185//143 
f 214//143 185//143 184//141 
f 210//137 184//141 187//135 
o mesh9
f 193//154 225//154 226//154 
f 193//154 186//154 227//154 
f 186//154 228//154 229//154 
f 186//154 230//154 231//154 
f 188//154 232//154 230//154 
f 188//154 233//154 234//154 
f 188//154 235//154 236//154 
f 193//154 237//154 225//154 
f 193//154 238//154 239//154 
f 227//154 240//154 193//154 
f 186//154 241//154 242//154 
f 186//154 243//154 244//154 
f 229//154 245//154 186//154 
f 186//154 246//154 247//154 
f 230//154 186//154 188//154 
f 188//154 248//154 233//154 
f 188//154 249//154 235//154 
f 239//154 237//154 193//154 
f 193//154 250//154 251//154 
f 240//154 252//154 193//154 
f 244//154 241//154 186//154 
f 186//154 253//154 254//154 
f 186//154 255//154 228//154 
f 231//154 246//154 186//154 
f 236//154 248//154 188//154 
f 193//154 256//154 257//154 
f 251//154 238//154 193//154 
f 186//154 258//154 227//154 
f 254//154 243//154 186//154 
f 186//154 259//154 260//154 
f 247//154 255//154 186//154 
f 188//154 261//154 262//154 
f 188//154 263//154 264//154 
f 188//154 265//154 249//154 
f 188//154 266//154 267//154 
f 226//154 256//154 193//154 
f 193//154 268//154 269//154 
f 242//154 258//154 186//154 
f 245//154 259//154 186//154 
f 264//154 261//154 188//154 
f 267//154 265//154 188//154 
f 188//154 270//154 271//154 
f 193//154 272//154 273//154 
f 193//154 274//154 275//154 
f 269//154 250//154 193//154 
f 260//154 253//154 186//154 
f 234//154 263//154 188//154 
f 271//154 276//154 188//154 
f 188//154 273//154 277//154 
f 275//154 272//154 193//154 
f 193//154 278//154 279//154 
f 252//154 268//154 193//154 
f 276//154 266//154 188//154 
f 273//154 188//154 193//154 
f 279//154 280//154 193//154 
f 193//154 281//154 282//154 
f 262//154 232//154 188//154 
f 280//154 274//154 193//154 
f 257//154 281//154 193//154 
f 282//154 278//154 193//154 
f 277//154 270//154 188//154 
o mesh10
f 190//153 189//153 283//153 
f 189//153 284//153 285//153 
f 189//153 286//153 287//153 
f 224//153 288//153 289//153 
f 224//153 190//153 290//153 
f 283//153 291//153 190//153 
f 287//153 284//153 189//153 
f 189//153 292//153 293//153 
f 189//153 294//153 295//153 
f 189//153 296//153 297//153 
f 224//153 298//153 299//153 
f 290//153 288//153 224//153 
f 190//153 300//153 301//153 
f 190//153 302//153 303//153 
f 190//153 304//153 305//153 
f 190//153 306//153 307//153 
f 291//153 308//153 190//153 
f 293//153 286//153 189//153 
f 297//153 294//153 189//153 
f 224//153 309//153 310//153 
f 224//153 311//153 312//153 
f 224//153 313//153 314//153 
f 224//153 315//153 316//153 
f 224//153 317//153 318//153 
f 299//153 319//153 224//153 
f 301//153 290//153 190//153 
f 303//153 320//153 190//153 
f 190//153 321//153 322//153 
f 305//153 323//153 190//153 
f 190//153 324//153 325//153 
f 190//153 326//153 327//153 
f 308//153 306//153 190//153 
f 295//153 292//153 189//153 
f 312//153 309//153 224//153 
f 316//153 313//153 224//153 
f 319//153 317//153 224//153 
f 224//153 328//153 329//153 
f 224//153 330//153 331//153 
f 320//153 300//153 190//153 
f 323//153 321//153 190//153 
f 327//153 324//153 190//153 
f 285//153 283//153 189//153 
f 314//153 311//153 224//153 
f 329//153 298//153 224//153 
f 331//153 332//153 224//153 
f 322//153 302//153 190//153 
f 307//153 326//153 190//153 
f 189//153 333//153 334//153 
f 189//153 335//153 336//153 
f 318//153 315//153 224//153 
f 224//153 337//153 338//153 
f 289//153 330//153 224//153 
f 334//153 296//153 189//153 
f 336//153 339//153 189//153 
f 189//153 310//153 340//153 
f 338//153 328//153 224//153 
f 325//153 304//153 190//153 
f 340//153 335//153 189//153 
f 332//153 337//153 224//153 
f 310//153 189//153 224//153 
f 339//153 333//153 189//153 
o mesh11
f 341//155 342//156 243//156 
f 343//157 341//155 254//158 
f 344//159 343//157 253//160 
f 345//161 344//159 260//162 
f 346//163 345//161 259//164 
f 347//165 346//163 245//166 
f 348//167 347//165 229//168 
f 349//169 348//167 228//170 
f 350//171 349//169 255//172 
f 351//173 350//171 247//174 
f 352//175 351//173 246//176 
f 353//177 352//175 231//178 
f 354//179 353//177 230//180 
f 355//181 354//179 232//182 
f 356//183 355//181 262//184 
f 357//185 356//183 261//186 
f 358//187 359//188 239//188 
f 360//189 358//187 238//190 
f 361//191 360//189 251//192 
f 362//193 361//191 250//194 
f 363//195 362//193 269//196 
f 364//197 363//195 268//198 
f 365//199 364//197 252//200 
f 366//201 365//199 240//202 
f 367//203 366//201 227//204 
f 368//205 367//203 258//206 
f 369//207 368//205 242//208 
f 370//209 369//207 241//210 
f 342//156 370//209 244//209 
f 239//188 359//188 371//211 
f 359//188 372//212 371//211 
f 237//213 371//211 373//214 
f 225//214 373//214 374//215 
f 226//215 374//215 375//216 
f 256//216 375//216 376//217 
f 257//217 376//217 377//218 
f 281//218 377//218 378//219 
f 282//219 378//219 379//220 
f 278//220 379//220 380//221 
f 279//221 381//222 382//223 
f 279//221 380//221 381//222 
f 280//223 383//224 384//225 
f 280//223 382//223 383//224 
f 274//225 385//226 386//227 
f 274//225 384//225 385//226 
f 275//227 387//228 388//229 
f 275//227 386//227 387//228 
f 272//229 389//230 390//231 
f 272//229 388//229 389//230 
f 273//231 390//231 391//232 
f 391//232 277//233 273//231 
f 270//234 277//233 392//233 
f 392//233 393//235 270//234 
f 271//236 270//234 394//237 
f 394//237 395//238 271//236 
f 276//239 271//236 396//240 
f 396//240 397//241 276//239 
f 266//242 276//239 398//243 
f 398//243 399//244 266//242 
f 267//245 266//242 400//246 
f 400//246 401//247 267//245 
f 265//248 267//245 402//249 
f 249//250 265//248 403//251 
f 235//252 249//250 404//253 
f 236//254 235//252 405//255 
f 248//256 236//254 406//257 
f 233//258 248//256 407//259 
f 234//260 233//258 408//261 
f 263//262 234//260 409//263 
f 264//264 263//262 410//265 
f 410//265 357//185 264//264 
f 410//265 411//266 357//185 
f 409//263 410//265 263//262 
f 408//261 409//263 234//260 
f 407//259 408//261 233//258 
f 406//257 407//259 248//256 
f 405//255 406//257 236//254 
f 404//253 405//255 235//252 
f 403//251 404//253 249//250 
f 402//249 403//251 265//248 
f 401//247 402//249 267//245 
f 399//244 400//246 266//242 
f 397//241 398//243 276//239 
f 395//238 396//240 271//236 
f 393//235 394//237 270//234 
f 391//232 392//233 277//233 
f 390//231 273//231 272//229 
f 388//229 272//229 275//227 
f 386//227 275//227 274//225 
f 384//225 274//225 280//223 
f 382//223 280//223 279//221 
f 380//221 279//221 278//220 
f 379//220 278//220 282//219 
f 378//219 282//219 281//218 
f 377//218 281//218 257//217 
f 376//217 257//217 256//216 
f 375//216 256//216 226//215 
f 374//215 226//215 225//214 
f 373//214 225//214 237//213 
f 371//211 237//213 239//188 
f 244//209 243//156 342//156 
f 241//210 244//209 370//209 
f 242//208 241//210 369//207 
f 258//206 242//208 368//205 
f 227//204 258//206 367//203 
f 240//202 227//204 366//201 
f 252//200 240//202 365//199 
f 268//198 252//200 364//197 
f 269//196 268//198 363//195 
f 250//194 269//196 362//193 
f 251//192 250//194 361//191 
f 238//190 251//192 360//189 
f 239//188 238//190 358//187 
f 261//186 264//264 357//185 
f 262//184 261//186 356//183 
f 232//182 262//184 355//181 
f 230//180 232//182 354//179 
f 231//178 230//180 353//177 
f 246//176 231//178 352//175 
f 247//174 246//176 351//173 
f 255//172 247//174 350//171 
f 228//170 255//172 349//169 
f 229//168 228//170 348//167 
f 245//166 229//168 347//165 
f 259//164 245//166 346//163 
f 260//162 259//164 345//161 
f 253//160 260//162 344//159 
f 254//158 253//160 343//157 
f 243//156 254//158 341//155 
o mesh12
f 356//267 357//268 412//269 
f 355//270 356//267 413//271 
f 354//272 355//270 414//273 
f 353//274 354//272 415//275 
f 352//276 353//274 416//277 
f 351//278 352//276 417//279 
f 350//280 351//278 418//281 
f 349//282 350//280 419//283 
f 348//284 349//282 420//285 
f 347//286 348//284 421//287 
f 346//288 347//286 422//289 
f 345//290 346//288 423//291 
f 344//292 345//290 424//293 
f 343//294 344//292 425//295 
f 343//294 426//294 427//296 
f 341//296 427//296 428//297 
f 342//297 428//297 429//298 
f 370//298 429//298 430//299 
f 369//300 430//299 431//301 
f 368//301 431//301 432//302 
f 367//303 432//302 433//304 
f 366//304 433//304 434//305 
f 365//306 434//305 435//307 
f 364//307 435//307 436//308 
f 363//309 436//308 437//310 
f 362//311 437//310 438//312 
f 361//312 438//312 439//313 
f 360//314 439//313 440//315 
f 358//316 440//315 441//317 
f 372//318 359//319 441//317 
f 441//317 359//319 358//316 
f 440//315 358//316 360//314 
f 439//313 360//314 361//312 
f 438//312 361//312 362//311 
f 437//310 362//311 363//309 
f 436//308 363//309 364//307 
f 435//307 364//307 365//306 
f 434//305 365//306 366//304 
f 433//304 366//304 367//303 
f 432//302 367//303 368//301 
f 431//301 368//301 369//300 
f 430//299 369//300 370//298 
f 429//298 370//298 342//297 
f 428//297 342//297 341//296 
f 427//296 341//296 343//294 
f 425//295 426//294 343//294 
f 424//293 425//295 344//292 
f 423//291 424//293 345//290 
f 422//289 423//291 346//288 
f 421//287 422//289 347//286 
f 420//285 421//287 348//284 
f 419//283 420//285 349//282 
f 418//281 419//283 350//280 
f 417//279 418//281 351//278 
f 416//277 417//279 352//276 
f 415//275 416//277 353//274 
f 414//273 415//275 354//272 
f 413//271 414//273 355//270 
f 412//269 413//271 356//267 
f 412//269 357//268 411//320 
o mesh13
f 224//321 442//321 443//321 
f 188//321 402//321 401//321 
f 443//321 444//321 224//321 
f 445//321 214//321 213//321 
f 390//321 208//321 204//321 
f 401//321 400//321 188//321 
f 444//321 446//321 224//321 
f 447//321 222//321 221//321 
f 445//321 215//321 214//321 
f 204//321 203//321 390//321 
f 400//321 399//321 188//321 
f 188//321 118//321 409//321 
f 118//321 411//321 410//321 
f 149//321 448//321 449//321 
f 190//321 450//321 448//321 
f 446//321 451//321 224//321 
f 221//321 220//321 447//321 
f 445//321 216//321 215//321 
f 445//321 447//321 217//321 
f 203//321 202//321 390//321 
f 399//321 398//321 188//321 
f 410//321 409//321 118//321 
f 448//321 149//321 190//321 
f 190//321 452//321 453//321 
f 451//321 454//321 224//321 
f 447//321 223//321 222//321 
f 447//321 455//321 224//321 
f 445//321 212//321 211//321 
f 217//321 216//321 445//321 
f 390//321 197//321 196//321 
f 202//321 201//321 390//321 
f 398//321 397//321 188//321 
f 409//321 408//321 188//321 
f 118//321 429//321 428//321 
f 190//321 456//321 450//321 
f 453//321 457//321 190//321 
f 190//321 458//321 459//321 
f 224//321 460//321 442//321 
f 447//321 219//321 218//321 
f 224//321 223//321 447//321 
f 445//321 209//321 212//321 
f 213//321 210//321 445//321 
f 191//321 383//321 382//321 
f 191//321 385//321 384//321 
f 390//321 198//321 197//321 
f 390//321 207//321 208//321 
f 188//321 403//321 402//321 
f 408//321 407//321 188//321 
f 428//321 427//321 118//321 
f 190//321 461//321 456//321 
f 459//321 452//321 190//321 
f 454//321 462//321 224//321 
f 220//321 219//321 447//321 
f 210//321 209//321 445//321 
f 382//321 381//321 191//321 
f 191//321 386//321 385//321 
f 196//321 195//321 390//321 
f 201//321 200//321 390//321 
f 397//321 396//321 188//321 
f 407//321 406//321 188//321 
f 427//321 426//321 118//321 
f 118//321 431//321 430//321 
f 149//321 463//321 464//321 
f 149//321 465//321 466//321 
f 190//321 467//321 461//321 
f 457//321 468//321 190//321 
f 190//321 469//321 470//321 
f 462//321 471//321 224//321 
f 211//321 192//321 445//321 
f 147//321 472//321 473//321 
f 191//321 378//321 377//321 
f 384//321 383//321 191//321 
f 191//321 388//321 387//321 
f 195//321 194//321 390//321 
f 200//321 199//321 390//321 
f 390//321 191//321 206//321 
f 396//321 395//321 188//321 
f 406//321 405//321 188//321 
f 118//321 414//321 413//321 
f 118//321 416//321 415//321 
f 430//321 429//321 118//321 
f 118//321 433//321 432//321 
f 117//321 435//321 434//321 
f 117//321 438//321 437//321 
f 149//321 474//321 475//321 
f 149//321 476//321 477//321 
f 149//321 478//321 479//321 
f 149//321 480//321 481//321 
f 149//321 482//321 483//321 
f 149//321 484//321 485//321 
f 464//321 486//321 149//321 
f 149//321 487//321 465//321 
f 190//321 488//321 467//321 
f 470//321 458//321 190//321 
f 190//321 489//321 490//321 
f 471//321 491//321 224//321 
f 218//321 217//321 447//321 
f 147//321 492//321 472//321 
f 191//321 379//321 378//321 
f 381//321 380//321 191//321 
f 191//321 389//321 388//321 
f 199//321 198//321 390//321 
f 206//321 205//321 390//321 
f 395//321 394//321 188//321 
f 405//321 404//321 188//321 
f 413//321 412//321 118//321 
f 118//321 417//321 416//321 
f 118//321 420//321 419//321 
f 118//321 425//321 424//321 
f 432//321 431//321 118//321 
f 434//321 433//321 117//321 
f 437//321 436//321 117//321 
f 147//321 149//321 493//321 
f 149//321 494//321 495//321 
f 477//321 474//321 149//321 
f 481//321 478//321 149//321 
f 485//321 482//321 149//321 
f 466//321 463//321 149//321 
f 190//321 496//321 488//321 
f 490//321 469//321 190//321 
f 224//321 497//321 498//321 
f 455//321 460//321 224//321 
f 445//321 192//321 147//321 
f 147//321 499//321 500//321 
f 147//321 501//321 502//321 
f 147//321 503//321 492//321 
f 380//321 379//321 191//321 
f 191//321 390//321 389//321 
f 188//321 391//321 390//321 
f 205//321 207//321 390//321 
f 404//321 403//321 188//321 
f 415//321 414//321 118//321 
f 419//321 418//321 118//321 
f 118//321 423//321 422//321 
f 426//321 425//321 118//321 
f 436//321 435//321 117//321 
f 117//321 440//321 439//321 
f 117//321 372//321 441//321 
f 495//321 493//321 149//321 
f 479//321 476//321 149//321 
f 149//321 504//321 505//321 
f 486//321 484//321 149//321 
f 468//321 496//321 190//321 
f 190//321 506//321 507//321 
f 491//321 497//321 224//321 
f 500//321 508//321 147//321 
f 147//321 509//321 510//321 
f 147//321 511//321 501//321 
f 473//321 512//321 147//321 
f 387//321 386//321 191//321 
f 194//321 193//321 390//321 
f 394//321 393//321 188//321 
f 418//321 417//321 118//321 
f 422//321 421//321 118//321 
f 433//321 118//321 117//321 
f 441//321 440//321 117//321 
f 475//321 494//321 149//321 
f 483//321 504//321 149//321 
f 507//321 489//321 190//321 
f 498//321 190//321 224//321 
f 510//321 499//321 147//321 
f 512//321 511//321 147//321 
f 192//321 191//321 117//321 
f 390//321 193//321 188//321 
f 393//321 392//321 188//321 
f 421//321 420//321 118//321 
f 439//321 438//321 117//321 
f 117//321 375//321 374//321 
f 505//321 480//321 149//321 
f 498//321 506//321 190//321 
f 502//321 509//321 147//321 
f 191//321 376//321 117//321 
f 392//321 391//321 188//321 
f 424//321 423//321 118//321 
f 117//321 373//321 371//321 
f 117//321 376//321 375//321 
f 449//321 487//321 149//321 
f 117//321 147//321 192//321 
f 412//321 411//321 118//321 
f 374//321 373//321 117//321 
f 147//321 508//321 445//321 
f 371//321 372//321 117//321 
f 377//321 376//321 191//321 
f 493//321 503//321 147//321 
o mesh14
f 513//322 514//323 333//323 
f 515//324 513//322 339//325 
f 516//326 515//324 336//327 
f 517//328 516//326 335//329 
f 518//330 517//328 340//331 
f 519//332 518//330 310//333 
f 520//334 519//332 309//335 
f 521//336 520//334 312//337 
f 522//338 521//336 311//339 
f 523//340 522//338 314//341 
f 524//342 523//340 313//343 
f 525//344 524//342 316//345 
f 526//346 525//344 315//347 
f 527//348 528//349 307//349 
f 529//350 527//348 306//351 
f 530//352 529//350 308//353 
f 531//354 530//352 291//355 
f 532//356 531//354 283//357 
f 533//358 532//356 285//359 
f 534//360 533//358 284//361 
f 535//362 534//360 287//363 
f 536//364 535//362 286//365 
f 537//366 536//364 293//367 
f 538//368 537//366 292//369 
f 539//370 538//368 295//371 
f 540//372 539//370 294//373 
f 541//374 540//372 297//375 
f 542//376 541//374 296//377 
f 514//323 542//376 334//376 
f 307//349 528//349 449//378 
f 528//349 487//379 449//378 
f 326//380 449//378 448//381 
f 327//381 448//381 450//382 
f 324//382 450//382 456//383 
f 325//383 456//383 461//384 
f 304//384 461//384 467//385 
f 305//385 467//385 488//386 
f 323//386 488//386 496//387 
f 321//387 496//387 468//388 
f 322//388 457//389 453//390 
f 322//388 468//388 457//389 
f 302//390 452//391 459//392 
f 302//390 453//390 452//391 
f 303//392 458//393 470//394 
f 303//392 459//392 458//393 
f 320//394 469//395 490//396 
f 320//394 470//394 469//395 
f 300//396 489//397 507//398 
f 300//396 490//396 489//397 
f 290//399 301//398 506//400 
f 301//398 507//398 506//400 
f 288//401 290//399 498//402 
f 498//402 497//403 288//401 
f 289//404 288//401 491//405 
f 491//405 471//406 289//404 
f 330//407 289//404 462//408 
f 462//408 454//409 330//407 
f 331//410 330//407 451//411 
f 451//411 446//412 331//410 
f 332//413 331//410 444//414 
f 444//414 443//415 332//413 
f 337//416 332//413 442//417 
f 338//418 337//416 460//419 
f 328//420 338//418 455//421 
f 329//422 328//420 447//423 
f 298//424 329//422 445//425 
f 299//426 298//424 508//427 
f 319//428 299//426 500//429 
f 317//430 319//428 499//431 
f 318//432 317//430 510//433 
f 510//433 526//346 318//432 
f 510//433 509//434 526//346 
f 499//431 510//433 317//430 
f 500//429 499//431 319//428 
f 508//427 500//429 299//426 
f 445//425 508//427 298//424 
f 447//423 445//425 329//422 
f 455//421 447//423 328//420 
f 460//419 455//421 338//418 
f 442//417 460//419 337//416 
f 443//415 442//417 332//413 
f 446//412 444//414 331//410 
f 454//409 451//411 330//407 
f 471//406 462//408 289//404 
f 497//403 491//405 288//401 
f 506//400 498//402 290//399 
f 507//398 301//398 300//396 
f 490//396 300//396 320//394 
f 470//394 320//394 303//392 
f 459//392 303//392 302//390 
f 453//390 302//390 322//388 
f 468//388 322//388 321//387 
f 496//387 321//387 323//386 
f 488//386 323//386 305//385 
f 467//385 305//385 304//384 
f 461//384 304//384 325//383 
f 456//383 325//383 324//382 
f 450//382 324//382 327//381 
f 448//381 327//381 326//380 
f 449//378 326//380 307//349 
f 334//376 333//323 514//323 
f 296//377 334//376 542//376 
f 297//375 296//377 541//374 
f 294//373 297//375 540//372 
f 295//371 294//373 539//370 
f 292//369 295//371 538//368 
f 293//367 292//369 537//366 
f 286//365 293//367 536//364 
f 287//363 286//365 535//362 
f 284//361 287//363 534//360 
f 285//359 284//361 533//358 
f 283//357 285//359 532//356 
f 291//355 283//357 531//354 
f 308//353 291//355 530//352 
f 306//351 308//353 529//350 
f 307//349 306//351 527//348 
f 315//347 318//432 526//346 
f 316//345 315//347 525//344 
f 313//343 316//345 524//342 
f 314//341 313//343 523//340 
f 311//339 314//341 522//338 
f 312//337 311//339 521//336 
f 309//335 312//337 520//334 
f 310//333 309//335 519//332 
f 340//331 310//333 518//330 
f 335//329 340//331 517//328 
f 336//327 335//329 516//326 
f 339//325 336//327 515//324 
f 333//323 339//325 513//322 
o mesh15
f 525//435 526//436 502//437 
f 524//438 525//435 501//439 
f 523//440 524//438 511//441 
f 522//442 523//440 512//443 
f 521//444 522//442 473//445 
f 520//446 521//444 472//447 
f 519//448 520//446 492//449 
f 518//450 519//448 503//451 
f 517//452 518//450 493//453 
f 516//454 517//452 495//455 
f 515//456 516//454 494//457 
f 513//458 515//456 475//459 
f 514//460 513//458 474//461 
f 542//462 514//460 477//463 
f 541//464 542//462 476//465 
f 541//464 479//464 478//466 
f 540//466 478//466 481//467 
f 539//468 481//467 480//469 
f 538//469 480//469 505//470 
f 537//471 505//470 504//472 
f 536//472 504//472 483//473 
f 535//474 483//473 482//475 
f 534//475 482//475 485//476 
f 533//477 485//476 484//478 
f 532//478 484//478 486//479 
f 531//480 486//479 464//481 
f 530//482 464//481 463//483 
f 529//483 463//483 466//484 
f 527//485 466//484 465//486 
f 487//487 528//488 465//486 
f 465//486 528//488 527//485 
f 466//484 527//485 529//483 
f 463//483 529//483 530//482 
f 464//481 530//482 531//480 
f 486//479 531//480 532//478 
f 484//478 532//478 533//477 
f 485//476 533//477 534//475 
f 482//475 534//475 535//474 
f 483//473 535//474 536//472 
f 504//472 536//472 537//471 
f 505//470 537//471 538//469 
f 480//469 538//469 539//468 
f 481//467 539//468 540//466 
f 478//466 540//466 541//464 
f 476//465 479//464 541//464 
f 477//463 476//465 542//462 
f 474//461 477//463 514//460 
f 475//459 474//461 513//458 
f 494//457 475//459 515//456 
f 495//455 494//457 516//454 
f 493//453 495//455 517//452 
f 503//451 493//453 518//450 
f 492//449 503//451 519//448 
f 472//447 492//449 520//446 
f 473//445 472//447 521//444 
f 512//443 473//445 522//442 
f 511//441 512//443 523//440 
f 501//439 511//441 524//438 
f 502//437 501//439 525//435 
f 502//437 526//436 509//489 
